<?xml version="1.0" encoding="UTF-8" standalone="no"?>
<!-- Created with Inkscape (http://www.inkscape.org/) -->

<svg
   width="24.999998mm"
   height="25.00001mm"
   viewBox="0 0 24.999998 25.000009"
   version="1.1"
   id="svg5"
   inkscape:version="1.1.2 (b8e25be8, 2022-02-05)"
   sodipodi:docname="pio.svg"
   xmlns:inkscape="http://www.inkscape.org/namespaces/inkscape"
   xmlns:sodipodi="http://sodipodi.sourceforge.net/DTD/sodipodi-0.dtd"
   xmlns="http://www.w3.org/2000/svg"
   xmlns:svg="http://www.w3.org/2000/svg">
  <sodipodi:namedview
     id="namedview7"
     pagecolor="#ffffff"
     bordercolor="#666666"
     borderopacity="1.0"
     inkscape:pageshadow="2"
     inkscape:pageopacity="0.0"
     inkscape:pagecheckerboard="0"
     inkscape:document-units="mm"
     showgrid="false"
     inkscape:zoom="1.0823424"
     inkscape:cx="-140.89811"
     inkscape:cy="56.821204"
     inkscape:window-width="1800"
     inkscape:window-height="1049"
     inkscape:window-x="0"
     inkscape:window-y="44"
     inkscape:window-maximized="0"
     inkscape:current-layer="layer1"
     fit-margin-top="0"
     fit-margin-left="0"
     fit-margin-right="0"
     fit-margin-bottom="0" />
  <defs
     id="defs2">
    <clipPath
       id="clipPath3342"
       clipPathUnits="userSpaceOnUse">
      <path
         d="m 587.338,85.712 c 1.351,0.159 3.828,0.453 6.662,0.791 v 0.016 c -2.921,-0.353 -5.348,-0.648 -6.662,-0.807"
         id="path2523" />
    </clipPath>
    <clipPath
       id="clipPath3352"
       clipPathUnits="userSpaceOnUse">
      <path
         d="m 0.7061,-0.281082 h 0.049317 v 0.38916 H 0.7061 Z"
         id="path2526" />
    </clipPath>
    <linearGradient
       id="linearGradient3356"
       gradientUnits="userSpaceOnUse"
       gradientTransform="matrix(-0.2613068,-40.273941,40.273941,-0.2613068,598.84375,116.0625)">
      <stop
         stop-color="#f9dd00"
         offset="0"
         id="stop2529" />
      <stop
         stop-color="#eeaf19"
         offset="1"
         id="stop2531" />
    </linearGradient>
    <clipPath
       id="clipPath3368"
       clipPathUnits="userSpaceOnUse">
      <path
         d="m 587.338,85.712 c 1.351,0.159 3.828,0.452 6.662,0.79 v 0.017 c -2.921,-0.353 -5.348,-0.648 -6.662,-0.807"
         id="path2534" />
    </clipPath>
    <clipPath
       id="clipPath3378"
       clipPathUnits="userSpaceOnUse">
      <path
         d="m 0.251389,-0.0927582 h 0.098983 v 0.339416 H 0.251389 Z"
         id="path2537" />
    </clipPath>
    <linearGradient
       id="linearGradient3382"
       gradientUnits="userSpaceOnUse"
       gradientTransform="matrix(-8.110199,45.690018,-45.690002,-8.110199,601.125,73.53125)">
      <stop
         stop-color="#39733c"
         offset="0"
         id="stop2540" />
      <stop
         stop-color="#8cbb40"
         offset="1"
         id="stop2542" />
    </linearGradient>
    <clipPath
       id="clipPath3394"
       clipPathUnits="userSpaceOnUse">
      <path
         d="m 588.139,77.571 c -3.022,-1.527 -6.53,-4.495 -10.148,-4.551 -0.995,-0.015 -3.329,0.806 -1.738,1.875 0.709,0.479 2.798,0.962 2.649,2.071 -0.078,0.577 -0.873,0.69 -1.428,0.828 -1.747,0.426 -3.711,0.317 -5.494,0.196 -4.445,-0.299 -8.696,-2.017 -12.591,-3.911 -2.707,-1.308 -6.447,-4.136 -9.664,-2.668 -1.726,0.782 2.121,2.038 1.957,3.039 -0.19,1.175 -2.715,1.515 -4.601,1.478 -2.899,-0.055 -5.82,-0.408 -8.598,-1.255 -2.739,-0.835 -5.013,-2.401 -7.575,-3.605 -1.288,-0.603 -2.748,-1.13 -4.188,-0.869 -2.695,0.474 1.242,2.099 0.909,2.809 -0.732,1.59 -3.852,0.876 -5.17,0.602 -2.45,-0.515 -4.91,-1.318 -7.205,-2.257 -1.242,-0.509 -2.693,-1.433 -4.031,-1.611 -0.482,-0.064 -1.388,-0.137 -1.393,0.48 0,0.657 1.504,1.208 1.163,1.994 -0.29,0.675 -1.526,0.568 -2.134,0.527 -1.575,-0.118 -3.064,-0.557 -4.567,-0.972 -5.562,-1.54 -12.436,-3.218 -20.895,-4.969 -40.225,-8.316 -116.395,-18.255 -258.47,-22.842 -1.243,-0.045 -2.502,-0.089 -3.754,-0.134 0.144,-0.005 0.29,-0.009 0.432,-0.013 -0.058,0 -0.117,-0.001 -0.175,-0.002 -0.058,-10e-4 -0.116,-0.002 -0.171,-10e-4 -0.079,-0.001 -0.159,-0.001 -0.238,0 -0.091,0 -0.182,10e-4 -0.269,0 -4.201,-0.152 -8.444,-0.3 -12.74,-0.443 7.198,-0.169 14.42,-0.322 21.69,-0.452 16.425,-0.289 32.596,-0.422 48.501,-0.417 78.691,1.031 171.926,6.861 263.678,19.165 0,0 0.025,0.001 0.062,0.006 7.346,1.141 19.598,2.616 31.785,5.213 7.109,1.514 14.195,3.411 20.272,5.849 v 6.386 c -2.531,-0.457 -4.769,-0.998 -5.861,-1.546"
         id="path2545" />
    </clipPath>
    <clipPath
       id="clipPath3404"
       clipPathUnits="userSpaceOnUse">
      <path
         d="m -0.629639,-6.52823 h 3.55216 v 13.18 h -3.55216 z"
         id="path2548" />
    </clipPath>
    <linearGradient
       id="linearGradient3408"
       gradientUnits="userSpaceOnUse"
       gradientTransform="matrix(-5.2716675,29.539383,-29.539383,-5.2716675,413.375,27.84375)">
      <stop
         stop-color="#4badde"
         offset="0"
         id="stop2551" />
      <stop
         stop-color="#265c8f"
         offset="1"
         id="stop2553" />
    </linearGradient>
    <clipPath
       id="clipPath3420"
       clipPathUnits="userSpaceOnUse">
      <path
         d="m 566.064,113.628 c -0.379,0 -0.901,-0.105 -1.108,-0.133 -0.067,-0.009 -0.133,-0.018 -0.195,-0.032 -2.857,-0.437 -5.34,-1.342 -7.661,-2.301 -0.392,-0.157 -4.05,-1.568 -2.774,-1.957 0.106,-0.031 0.313,-0.024 0.53,-0.018 0.436,0.015 0.908,0.026 0.701,-0.259 -0.177,-0.249 -1.018,-0.482 -1.414,-0.625 -1.822,-0.656 -3.774,-1.199 -5.6,-1.855 -0.442,-0.162 -3.084,-1.129 -1.987,-1.488 0.689,-0.222 1.746,0.294 2.336,0.445 0.463,0.116 1.909,0.368 1.466,-0.193 -0.472,-0.593 -1.899,-0.869 -2.86,-1.18 -1.565,-0.495 -3.077,-1.094 -4.408,-1.764 -0.431,-0.217 -3.051,-1.453 -1.457,-1.728 0.657,-0.116 1.5,0.221 2.121,0.31 0.386,0.052 1.546,0.144 1.718,-0.113 0.256,-0.371 -1.3,-0.789 -1.714,-0.951 -0.414,-0.161 -1.369,-0.498 -2.003,-0.869 -0.734,-0.045 -1.477,-0.1 -2.208,-0.15 -0.104,0.176 -0.284,0.352 -0.427,0.468 -0.639,0.517 -1.764,0.762 -2.56,1.201 -0.228,0.126 -0.57,0.32 -0.182,0.494 0.258,0.115 0.791,0.061 1.041,0.007 0.295,-0.066 0.68,-0.249 1.023,-0.185 0.352,0.065 0.36,0.256 0.311,0.431 -0.042,0.141 -0.261,0.298 -0.387,0.422 -0.412,0.395 -0.888,0.773 -1.139,1.208 -0.064,0.11 -0.225,0.312 -0.069,0.414 0.157,0.105 0.444,0.087 0.715,0.067 0.228,-0.015 0.449,-0.031 0.576,0.025 0.683,0.285 -0.019,0.757 -0.247,1.034 -0.141,0.171 -0.203,0.398 -0.023,0.565 0.103,0.095 0.896,0.446 0.304,0.426 -0.317,-0.005 -0.655,-0.095 -0.941,-0.165 -0.591,-0.133 -1.192,-0.26 -1.737,-0.442 -0.583,-0.202 -1.124,-0.432 -1.63,-0.683 -0.287,-0.142 -1.121,-0.593 -0.808,-0.84 0.096,-0.07 0.229,-0.062 0.365,-0.055 0.103,0.008 0.211,0.017 0.3,-0.015 0.59,-0.206 -1.559,-0.684 -1.786,-0.761 -0.921,-0.301 -1.761,-0.663 -2.571,-1.043 -0.505,-0.232 -2.103,-0.728 -1.774,-1.175 0.172,-0.236 0.655,-0.125 1.143,-0.017 0.387,0.083 0.779,0.171 1.022,0.084 0.712,-0.256 -0.547,-0.697 -0.876,-0.841 -0.406,-0.187 -2.83,-1.093 -3.116,-1.704 -0.089,-0.007 -0.17,-0.018 -0.252,-0.026 -0.03,0.058 -0.064,0.12 -0.098,0.175 -0.441,0.704 -1.286,1.241 -2.175,1.786 -0.336,0.205 -1.891,0.986 -1.58,1.313 0.375,0.391 2.151,-0.289 2.653,-0.295 1.715,-0.012 0.088,1.043 -0.232,1.354 -0.378,0.362 -3.412,2.357 -2.659,2.663 0.283,0.115 0.598,-0.008 0.929,-0.131 0.312,-0.115 0.645,-0.229 0.991,-0.146 0.976,0.224 0.593,1.229 0.506,1.647 -0.161,0.813 -0.343,1.522 0.342,2.283 0.345,0.381 0.764,0.713 1.311,1.023 0.152,0.086 0.316,0.161 0.219,0.289 -0.196,0.262 -1.317,-0.178 -1.537,-0.257 -2.491,-0.888 -5.194,-1.955 -7.152,-3.177 -0.358,-0.218 -1.267,-0.819 -1.155,-1.138 0.078,-0.206 0.207,-0.196 0.498,-0.186 0.066,10e-4 0.142,0.004 0.227,0.004 0.144,-10e-4 0.279,0.004 0.403,0.01 0.467,0.02 0.766,0.039 0.672,-0.234 -0.078,-0.226 -0.633,-0.464 -0.917,-0.613 -1.746,-0.937 -3.802,-1.668 -5.65,-2.542 -0.644,-0.303 -1.28,-0.624 -1.806,-0.991 -0.29,-0.21 -0.893,-0.704 -0.289,-0.871 0.59,-0.166 2.286,0.484 2.793,0.617 0.227,0.064 1.168,0.407 1.39,0.338 0.362,-0.111 -0.007,-0.58 -0.164,-0.725 -0.712,-0.659 -2.114,-1.159 -3.186,-1.633 -1.227,-0.555 -2.469,-1.097 -3.625,-1.692 -0.416,-0.216 -1.629,-1.095 -1.513,-1.496 -0.942,-0.331 -1.739,-0.582 -2.652,-0.707 -0.09,0.263 -0.819,0.889 -1.233,0.954 -0.277,0.042 -0.8,0.161 -0.389,0.292 0.236,0.065 0.676,0.007 0.928,0.003 2.881,-0.036 -1.002,1.123 0.013,1.507 0.145,0.057 0.322,0.055 0.5,0.053 0.186,-0.003 0.37,-0.005 0.523,0.058 0.427,0.187 0.165,0.661 0.085,0.895 -0.103,0.315 -0.297,0.619 -0.363,0.939 0.007,0.092 0.062,0.177 0.204,0.232 -1.293,-0.472 -2.608,-0.95 -3.984,-1.343 -0.353,-0.105 -0.892,-0.219 -0.993,-0.446 -0.099,-0.222 0.362,-0.223 0.721,-0.225 0.123,0 0.231,0 0.304,-0.008 -0.064,-0.102 -0.311,-0.237 -0.493,-0.296 -0.81,-0.266 -1.513,-0.598 -2.283,-0.891 -0.39,-0.153 -0.807,-0.279 -1.189,-0.441 -0.314,-0.134 -0.964,-0.559 -0.206,-0.54 0.304,0.007 1.308,0.527 1.466,0.103 0.103,-0.264 -0.798,-0.49 -0.984,-0.569 -0.214,-0.09 -0.44,-0.167 -0.666,-0.243 -0.899,-0.307 -1.784,-0.831 -2.257,-1.629 C 491.881,92.4 331.564,46.178 0,58.215 v -1.219 c 11.605,-1.498 23.627,-2.854 35.995,-4.088 5.907,-0.265 11.744,-0.505 17.544,-0.732 31.497,-1.231 61.428,-1.902 89.753,-2.109 2.838,-0.021 5.664,-0.035 8.475,-0.046 0.931,-0.002 1.849,-0.004 2.775,-0.004 1.883,-0.008 3.763,-0.009 5.635,-0.01 1.092,-10e-4 2.177,0.001 3.265,0.002 1.686,0.003 3.371,0.006 5.046,0.012 1.143,0.003 2.282,0.008 3.422,0.015 1.629,0.007 3.252,0.018 4.873,0.03 1.139,0.007 2.276,0.016 3.407,0.026 1.606,0.014 3.207,0.029 4.802,0.046 1.114,0.013 2.228,0.026 3.338,0.036 1.625,0.023 3.243,0.044 4.859,0.065 1.067,0.016 2.136,0.031 3.198,0.049 1.732,0.026 3.453,0.055 5.172,0.086 0.913,0.017 1.828,0.032 2.734,0.049 2.343,0.044 4.672,0.094 6.992,0.143 0.28,0.009 0.562,0.012 0.84,0.019 2.582,0.059 5.147,0.122 7.699,0.189 0.869,0.021 1.73,0.047 2.595,0.07 1.692,0.047 3.384,0.093 5.062,0.144 1.016,0.027 2.026,0.059 3.037,0.094 1.514,0.045 3.023,0.09 4.523,0.142 1.05,0.034 2.09,0.068 3.132,0.103 1.478,0.052 2.957,0.103 4.425,0.158 1.02,0.037 2.038,0.073 3.055,0.114 1.459,0.057 2.917,0.109 4.365,0.166 1.015,0.043 2.028,0.081 3.037,0.122 1.447,0.06 2.885,0.123 4.321,0.183 0.982,0.046 1.969,0.087 2.95,0.131 1.525,0.067 3.035,0.138 4.547,0.208 0.859,0.038 1.727,0.077 2.581,0.12 2.026,0.094 4.037,0.197 6.039,0.298 0.322,0.017 0.651,0.032 0.975,0.048 2.32,0.118 4.627,0.241 6.918,0.365 0.766,0.042 1.522,0.085 2.285,0.131 1.526,0.083 3.05,0.166 4.555,0.253 0.903,0.054 1.798,0.107 2.694,0.159 1.366,0.079 2.731,0.163 4.087,0.247 0.928,0.055 1.854,0.114 2.779,0.172 1.302,0.081 2.598,0.163 3.889,0.243 0.936,0.063 1.876,0.122 2.808,0.187 1.269,0.083 2.529,0.168 3.789,0.251 0.916,0.061 1.828,0.123 2.74,0.187 1.288,0.09 2.567,0.181 3.841,0.273 0.854,0.057 1.705,0.117 2.554,0.181 1.367,0.094 2.721,0.197 4.077,0.299 0.744,0.053 1.496,0.109 2.236,0.164 1.612,0.123 3.208,0.245 4.796,0.37 0.468,0.035 0.947,0.07 1.41,0.108 2.03,0.161 4.041,0.323 6.039,0.486 0.618,0.051 1.224,0.103 1.842,0.153 1.399,0.119 2.797,0.235 4.179,0.351 0.742,0.064 1.479,0.128 2.216,0.193 1.224,0.104 2.445,0.211 3.655,0.317 0.791,0.069 1.572,0.142 2.355,0.21 1.163,0.106 2.326,0.209 3.476,0.317 0.782,0.069 1.557,0.143 2.332,0.216 1.124,0.104 2.243,0.208 3.359,0.313 0.778,0.076 1.554,0.147 2.327,0.222 1.1,0.107 2.189,0.212 3.276,0.318 0.761,0.078 1.522,0.149 2.276,0.225 1.138,0.114 2.258,0.226 3.377,0.34 0.67,0.066 1.339,0.134 2.002,0.2 1.371,0.145 2.725,0.284 4.077,0.426 0.402,0.044 0.813,0.086 1.215,0.128 1.747,0.184 3.477,0.37 5.188,0.556 0.402,0.041 0.792,0.086 1.189,0.131 1.307,0.143 2.608,0.288 3.892,0.432 0.607,0.069 1.206,0.137 1.809,0.203 1.04,0.119 2.079,0.237 3.101,0.355 0.685,0.078 1.36,0.158 2.035,0.239 0.956,0.108 1.904,0.219 2.842,0.331 0.681,0.081 1.358,0.161 2.032,0.242 0.912,0.111 1.819,0.221 2.722,0.329 0.656,0.079 1.312,0.161 1.961,0.242 0.93,0.111 1.849,0.226 2.763,0.342 0.604,0.074 1.214,0.15 1.816,0.225 0.972,0.124 1.927,0.249 2.883,0.371 0.517,0.067 1.043,0.133 1.56,0.198 1.068,0.137 2.122,0.277 3.173,0.414 0.396,0.055 0.803,0.106 1.196,0.159 1.411,0.188 2.804,0.377 4.174,0.561 0.371,0.049 0.733,0.1 1.102,0.151 1.019,0.139 2.031,0.277 3.028,0.415 0.482,0.07 0.958,0.139 1.436,0.204 0.852,0.119 1.7,0.238 2.535,0.358 0.524,0.075 1.041,0.149 1.562,0.226 0.777,0.112 1.554,0.222 2.321,0.336 0.518,0.073 1.036,0.149 1.549,0.227 0.744,0.109 1.481,0.218 2.208,0.327 0.515,0.077 1.03,0.153 1.538,0.23 0.688,0.104 1.367,0.207 2.044,0.312 0.528,0.078 1.054,0.159 1.573,0.238 0.685,0.106 1.355,0.214 2.025,0.317 0.462,0.07 0.928,0.143 1.386,0.217 0.807,0.127 1.599,0.254 2.387,0.381 0.299,0.047 0.613,0.094 0.908,0.143 1.079,0.173 2.139,0.347 3.179,0.516 0.289,0.052 0.564,0.097 0.851,0.144 0.751,0.125 1.498,0.246 2.224,0.37 0.406,0.069 0.79,0.135 1.184,0.201 0.588,0.1 1.177,0.199 1.743,0.297 0.424,0.075 0.831,0.145 1.246,0.216 0.53,0.094 1.062,0.185 1.58,0.275 0.418,0.077 0.833,0.151 1.243,0.219 0.478,0.089 0.95,0.172 1.42,0.258 0.422,0.075 0.843,0.153 1.259,0.225 0.438,0.081 0.872,0.164 1.299,0.241 0.401,0.073 0.802,0.148 1.191,0.222 0.439,0.08 0.864,0.159 1.291,0.239 0.363,0.069 0.731,0.137 1.085,0.207 0.414,0.079 0.814,0.156 1.218,0.236 0.346,0.066 0.705,0.134 1.043,0.202 0.68,0.132 1.341,0.263 1.983,0.388 0.012,0.004 0.029,0.005 0.042,0.009 0.928,0.604 1.567,0.954 3.047,1.48 2.367,0.844 5.301,1.951 7.124,2.988 1.823,1.037 4.467,3.578 6.51,4.155 2.049,0.575 5.412,1.778 6.992,1.837 1.58,0.062 4.255,-0.718 4.878,-1.466 0.619,-0.747 0.697,-1.153 1.859,-1.791 0.923,-0.509 2.226,-2.027 3.493,-2.548 1.443,0.257 2.32,0.432 2.347,0.486 1.256,2.542 3.627,7.002 4.722,9.266 l 2.433,0.127 -0.261,-0.558 1.795,0.124 0.251,0.545 2.02,0.127 -0.224,-0.507 1.79,0.119 0.223,0.502 2.522,0.157 -1.488,-3.387 3.203,0.193 1.627,3.388 2.261,0.142 -0.25,-0.563 1.796,0.126 0.24,0.555 1.966,0.123 -0.265,-0.546 1.801,0.126 0.257,0.539 2.881,0.191 -4.438,-8.472 c 0.815,0.045 2.971,0.337 3.769,0.379 l 4.156,7.256 2.619,0.211 1.278,1.463 -3.814,-0.389 14.529,6.794 3.588,-5.656 -3.142,-0.242 -0.912,-1.333 2.276,0.087 -4.201,-7.078 c 0.482,0.049 2.563,0.232 4.703,0.413 l 3.66,6.252 -1.551,-0.199 12.086,6.06 1.542,-2.092 6.854,0.747 -2.509,-3.632 1.643,0.092 -0.903,-1.407 2.212,0.118 -2.3,-4.854 -0.1,-0.21 4.701,0.593 c 0.018,0 0.417,0.046 1.094,0.124 1.314,0.159 3.741,0.454 6.662,0.807 v 12.918 c -3.389,0.301 -6.704,0.282 -9.239,0.257 -1.432,-0.013 -2.617,-0.027 -3.422,0.014 -0.668,0.007 -1.332,0.019 -2.017,0.025 -0.004,0.01 -0.009,0.018 -0.012,0.027 h -0.005 l 0.003,0.002 c -0.193,0.435 -0.615,0.798 -1.066,1.168 -0.186,0.147 -1.056,0.718 -0.809,0.91 0.306,0.236 1.33,-0.28 1.653,-0.302 1.094,-0.086 0.222,0.663 0.061,0.875 -0.185,0.249 -1.807,1.664 -1.277,1.826 0.2,0.062 0.382,-0.032 0.576,-0.127 0.178,-0.085 0.375,-0.173 0.605,-0.137 0.66,0.1 0.569,0.762 0.584,1.037 0.024,0.528 0.014,0.99 0.578,1.445 0.248,0.206 0.526,0.383 0.9,0.529 0.138,0.053 0.538,0.155 0.508,0.264 -0.05,0.168 -0.5,0.075 -0.684,0.035 -0.391,-0.074 -0.742,-0.193 -1.115,-0.298 -0.791,-0.227 -1.581,-0.448 -2.343,-0.704 -0.769,-0.258 -1.502,-0.539 -2.177,-0.859 -0.26,-0.132 -0.935,-0.474 -0.918,-0.684 0.026,-0.169 0.145,-0.126 0.433,-0.152 0.443,-0.028 0.786,0.029 0.657,-0.189 -0.09,-0.14 -0.481,-0.267 -0.68,-0.352 -1.265,-0.525 -2.695,-0.9 -4.009,-1.378 -0.464,-0.165 -0.917,-0.346 -1.309,-0.556 -0.221,-0.118 -0.681,-0.408 -0.322,-0.544 0.352,-0.133 1.54,0.21 1.882,0.273 0.154,0.028 0.806,0.205 0.938,0.153 0.214,-0.089 -0.094,-0.37 -0.219,-0.46 -0.555,-0.387 -1.532,-0.645 -2.287,-0.907 -0.446,-0.149 -0.893,-0.301 -1.339,-0.461 -0.765,0.678 -2.223,1.288 -3.444,1.574 -0.388,0.09 -1.254,0.172 -1.464,0.39 -0.294,0.313 0.474,0.366 0.91,0.289 0.56,-0.094 1.737,-0.466 2.124,-0.02 0.628,0.718 -1.512,1.694 -2.34,2.059 -0.466,0.203 -2.566,0.759 -2.175,1.172 0.278,0.287 1.131,-0.076 1.52,-0.087 0.657,-0.019 1.345,0.273 1.383,0.638 0.059,0.685 -1.302,1.323 -2.052,1.812 -0.66,0.434 -1.923,1.19 -1.269,1.808 0.23,0.219 0.616,0.182 1.001,0.149 0.497,-0.044 0.996,-0.089 1.185,0.412 0.149,0.418 -0.109,0.861 0.159,1.269 0.271,0.417 0.79,0.78 1.382,1.077 0.335,0.171 1.478,0.48 1.442,0.758 -0.017,0.118 -0.189,0.159 -0.417,0.161 z m -63.43,-14.366 c 0.01,0.004 0.021,0.007 0.032,0.013 -0.011,-0.006 -0.022,-0.009 -0.032,-0.013"
         id="path2556" />
    </clipPath>
    <clipPath
       id="clipPath3430"
       clipPathUnits="userSpaceOnUse">
      <path
         d="m -0.631607,-6.49182 h 4.07378 v 13.0627 h -4.07378 z"
         id="path2559" />
    </clipPath>
    <linearGradient
       id="linearGradient3434"
       gradientUnits="userSpaceOnUse"
       gradientTransform="matrix(-9.536377,45.956711,-45.956711,-9.536377,312.21875,15.28125)">
      <stop
         stop-color="#39733c"
         offset="0"
         id="stop2562" />
      <stop
         stop-color="#8cbb40"
         offset="1"
         id="stop2564" />
    </linearGradient>
    <clipPath
       id="clipPath3446"
       clipPathUnits="userSpaceOnUse">
      <path
         d="m 544.068,91.135 3.814,0.389 -1.278,-1.463 -2.619,-0.211 -4.156,-7.256 c -0.798,-0.042 -2.954,-0.334 -3.769,-0.379 l 4.438,8.472 -2.881,-0.191 -0.257,-0.539 -1.801,-0.126 0.265,0.546 -1.966,-0.123 -0.24,-0.555 -1.796,-0.126 0.25,0.563 -2.261,-0.142 -1.627,-3.388 -3.203,-0.193 1.488,3.387 -2.522,-0.157 -0.223,-0.502 -1.79,-0.119 0.224,0.507 -2.02,-0.127 -0.251,-0.545 -1.795,-0.124 0.261,0.558 -2.433,-0.127 c -1.095,-2.264 -3.466,-6.724 -4.722,-9.266 -0.027,-0.054 -0.904,-0.229 -2.347,-0.486 -1.267,0.521 -2.57,2.039 -3.493,2.548 -1.162,0.638 -1.24,1.044 -1.859,1.791 -0.623,0.748 -3.298,1.528 -4.878,1.466 -1.58,-0.059 -4.943,-1.262 -6.992,-1.837 -2.043,-0.577 -4.687,-3.118 -6.51,-4.155 -1.823,-1.037 -4.757,-2.144 -7.124,-2.988 -1.48,-0.526 -2.119,-0.876 -3.047,-1.48 -0.013,-0.004 -0.03,-0.005 -0.042,-0.009 -0.642,-0.125 -1.303,-0.256 -1.983,-0.388 -0.34,-0.068 -0.697,-0.136 -1.043,-0.202 -0.404,-0.08 -0.804,-0.157 -1.218,-0.236 -0.354,-0.07 -0.722,-0.138 -1.085,-0.207 -0.427,-0.08 -0.852,-0.159 -1.291,-0.239 -0.389,-0.074 -0.79,-0.149 -1.191,-0.222 -0.427,-0.077 -0.861,-0.16 -1.299,-0.241 -0.416,-0.072 -0.837,-0.15 -1.259,-0.225 -0.47,-0.086 -0.942,-0.169 -1.42,-0.258 -0.41,-0.068 -0.825,-0.142 -1.243,-0.219 -0.518,-0.09 -1.05,-0.181 -1.58,-0.275 -0.415,-0.071 -0.822,-0.141 -1.246,-0.216 -0.566,-0.098 -1.155,-0.197 -1.743,-0.297 -0.394,-0.066 -0.778,-0.132 -1.184,-0.201 -0.726,-0.124 -1.473,-0.245 -2.224,-0.37 -0.287,-0.047 -0.562,-0.092 -0.851,-0.144 -1.04,-0.169 -2.1,-0.343 -3.179,-0.516 -0.298,-0.048 -0.609,-0.097 -0.908,-0.143 -0.788,-0.127 -1.58,-0.254 -2.387,-0.381 -0.458,-0.074 -0.924,-0.147 -1.386,-0.217 -0.67,-0.103 -1.34,-0.211 -2.025,-0.317 -0.519,-0.079 -1.045,-0.16 -1.573,-0.238 -0.677,-0.105 -1.356,-0.208 -2.044,-0.312 -0.508,-0.077 -1.023,-0.153 -1.538,-0.23 -0.727,-0.109 -1.464,-0.218 -2.208,-0.327 -0.513,-0.078 -1.031,-0.154 -1.549,-0.227 -0.767,-0.114 -1.544,-0.224 -2.321,-0.336 -0.521,-0.077 -1.038,-0.151 -1.562,-0.226 -0.835,-0.12 -1.683,-0.239 -2.535,-0.358 -0.478,-0.065 -0.954,-0.134 -1.436,-0.204 -0.997,-0.138 -2.009,-0.276 -3.028,-0.415 -0.369,-0.051 -0.731,-0.102 -1.102,-0.151 -1.37,-0.184 -2.763,-0.373 -4.174,-0.561 -0.393,-0.053 -0.8,-0.104 -1.196,-0.159 -1.051,-0.137 -2.105,-0.277 -3.173,-0.414 -0.517,-0.065 -1.041,-0.131 -1.56,-0.198 -0.956,-0.122 -1.911,-0.247 -2.883,-0.371 -0.602,-0.075 -1.212,-0.151 -1.816,-0.225 -0.914,-0.116 -1.833,-0.231 -2.763,-0.342 -0.649,-0.081 -1.305,-0.163 -1.961,-0.242 -0.903,-0.108 -1.81,-0.218 -2.722,-0.329 -0.674,-0.081 -1.349,-0.161 -2.032,-0.242 -0.938,-0.112 -1.886,-0.223 -2.842,-0.331 -0.675,-0.081 -1.35,-0.161 -2.035,-0.239 -1.022,-0.118 -2.061,-0.236 -3.101,-0.355 -0.603,-0.066 -1.202,-0.134 -1.809,-0.203 -1.284,-0.144 -2.585,-0.289 -3.892,-0.432 -0.397,-0.045 -0.787,-0.09 -1.189,-0.131 -1.711,-0.186 -3.441,-0.371 -5.188,-0.556 -0.402,-0.042 -0.811,-0.084 -1.215,-0.128 -1.352,-0.142 -2.706,-0.281 -4.077,-0.426 -0.663,-0.066 -1.332,-0.132 -2.002,-0.2 -1.119,-0.114 -2.239,-0.226 -3.377,-0.34 -0.754,-0.076 -1.515,-0.147 -2.276,-0.225 -1.087,-0.106 -2.176,-0.211 -3.276,-0.318 -0.775,-0.075 -1.549,-0.146 -2.327,-0.222 -1.116,-0.105 -2.235,-0.209 -3.359,-0.313 -0.776,-0.073 -1.55,-0.147 -2.332,-0.216 -1.15,-0.108 -2.313,-0.211 -3.476,-0.317 -0.783,-0.068 -1.564,-0.141 -2.355,-0.21 -1.21,-0.106 -2.431,-0.213 -3.655,-0.317 -0.737,-0.065 -1.474,-0.129 -2.216,-0.193 -1.385,-0.116 -2.78,-0.232 -4.179,-0.351 -0.618,-0.05 -1.224,-0.102 -1.842,-0.153 -1.998,-0.163 -4.009,-0.325 -6.039,-0.486 -0.467,-0.038 -0.942,-0.073 -1.41,-0.108 -1.588,-0.125 -3.184,-0.247 -4.796,-0.37 -0.74,-0.055 -1.492,-0.111 -2.236,-0.164 -1.356,-0.102 -2.71,-0.205 -4.077,-0.299 -0.849,-0.064 -1.7,-0.124 -2.554,-0.181 -1.274,-0.092 -2.553,-0.183 -3.841,-0.273 -0.912,-0.064 -1.824,-0.126 -2.74,-0.187 -1.26,-0.083 -2.52,-0.168 -3.789,-0.251 -0.936,-0.065 -1.872,-0.124 -2.808,-0.187 -1.291,-0.08 -2.587,-0.162 -3.889,-0.243 -0.925,-0.058 -1.851,-0.117 -2.779,-0.172 -1.356,-0.084 -2.721,-0.168 -4.087,-0.247 -0.896,-0.052 -1.791,-0.105 -2.694,-0.159 -1.505,-0.087 -3.029,-0.17 -4.555,-0.253 -0.763,-0.046 -1.519,-0.089 -2.285,-0.131 -2.291,-0.124 -4.598,-0.247 -6.918,-0.365 -0.324,-0.016 -0.653,-0.031 -0.975,-0.048 -2.003,-0.101 -4.012,-0.204 -6.039,-0.298 -0.854,-0.043 -1.722,-0.082 -2.581,-0.12 -1.512,-0.07 -3.022,-0.141 -4.547,-0.208 -0.981,-0.044 -1.968,-0.085 -2.95,-0.131 -1.436,-0.06 -2.874,-0.123 -4.321,-0.183 -1.009,-0.041 -2.022,-0.079 -3.037,-0.122 -1.448,-0.057 -2.906,-0.109 -4.365,-0.166 -1.017,-0.041 -2.035,-0.077 -3.055,-0.114 -1.468,-0.054 -2.945,-0.106 -4.425,-0.158 -1.042,-0.035 -2.082,-0.069 -3.132,-0.103 -1.5,-0.052 -3.009,-0.097 -4.523,-0.142 -1.011,-0.035 -2.021,-0.067 -3.037,-0.094 -1.678,-0.051 -3.368,-0.097 -5.062,-0.144 -0.865,-0.023 -1.726,-0.049 -2.595,-0.07 -2.552,-0.067 -5.117,-0.13 -7.699,-0.189 -0.278,-0.007 -0.56,-0.01 -0.84,-0.019 -2.32,-0.049 -4.649,-0.099 -6.992,-0.143 -0.906,-0.017 -1.821,-0.032 -2.734,-0.049 -1.719,-0.031 -3.44,-0.06 -5.172,-0.086 -1.064,-0.018 -2.131,-0.033 -3.198,-0.049 -1.616,-0.021 -3.234,-0.042 -4.859,-0.065 -1.11,-0.01 -2.224,-0.023 -3.338,-0.036 -1.595,-0.017 -3.196,-0.032 -4.802,-0.046 -1.131,-0.01 -2.268,-0.019 -3.407,-0.026 -1.621,-0.012 -3.244,-0.023 -4.873,-0.03 -1.14,-0.007 -2.279,-0.012 -3.422,-0.015 -1.675,-0.006 -3.36,-0.009 -5.046,-0.012 -1.088,-10e-4 -2.173,-0.003 -3.265,-0.002 -1.872,0.001 -3.752,0.002 -5.635,0.01 -0.926,0 -1.844,0.002 -2.775,0.004 -2.811,0.011 -5.637,0.025 -8.475,0.046 -28.325,0.207 -58.256,0.878 -89.753,2.109 -5.8,0.227 -11.637,0.467 -17.544,0.732 52.075,-5.194 110.568,-8.11 172.017,-9.541 4.296,0.143 8.539,0.291 12.74,0.443 0.139,0.006 0.281,0.01 0.421,0.016 -0.084,0.003 -0.169,0.003 -0.252,0.007 1.347,0.042 2.67,0.087 4.006,0.127 142.075,4.587 218.245,14.526 258.47,22.842 8.459,1.751 15.333,3.429 20.895,4.969 1.503,0.415 2.992,0.854 4.567,0.972 0.608,0.041 1.844,0.148 2.134,-0.527 0.341,-0.786 -1.163,-1.337 -1.163,-1.994 0.005,-0.617 0.911,-0.544 1.393,-0.48 1.338,0.178 2.789,1.102 4.031,1.611 2.295,0.939 4.755,1.742 7.205,2.257 1.318,0.274 4.438,0.988 5.17,-0.602 0.333,-0.71 -3.604,-2.335 -0.909,-2.809 1.44,-0.261 2.9,0.266 4.188,0.869 2.562,1.204 4.836,2.77 7.575,3.605 2.778,0.847 5.699,1.2 8.598,1.255 1.886,0.037 4.411,-0.303 4.601,-1.478 0.164,-1.001 -3.683,-2.257 -1.957,-3.039 3.217,-1.468 6.957,1.36 9.664,2.668 3.895,1.894 8.146,3.612 12.591,3.911 1.783,0.121 3.747,0.23 5.494,-0.196 0.555,-0.138 1.35,-0.251 1.428,-0.828 0.149,-1.109 -1.94,-1.592 -2.649,-2.071 -1.591,-1.069 0.743,-1.89 1.738,-1.875 3.618,0.056 7.126,3.024 10.148,4.551 1.092,0.548 3.33,1.089 5.861,1.546 v 7.386 c -2.834,-0.338 -5.311,-0.632 -6.662,-0.791 -0.648,-0.077 -1.057,-0.124 -1.094,-0.124 l -4.701,-0.593 0.1,0.21 2.3,4.854 -2.212,-0.118 0.903,1.407 -1.643,-0.092 2.509,3.632 -6.854,-0.747 -1.542,2.092 -12.086,-6.06 1.551,0.199 -3.66,-6.252 c -2.14,-0.181 -4.221,-0.364 -4.703,-0.413 l 4.201,7.078 -2.276,-0.087 0.912,1.333 3.142,0.242 -3.588,5.656 z"
         id="path2567" />
    </clipPath>
    <clipPath
       id="clipPath3456"
       clipPathUnits="userSpaceOnUse">
      <path
         d="m -0.753876,-7.51134 h 2.583 v 14.8378 h -2.583 z"
         id="path2570" />
    </clipPath>
    <linearGradient
       id="linearGradient3460"
       gradientUnits="userSpaceOnUse"
       gradientTransform="matrix(3.0298462,-38.264908,38.264908,3.0298462,321.40625,91.5)">
      <stop
         stop-color="#f9dc00"
         offset="0"
         id="stop2573" />
      <stop
         stop-color="#ebb01a"
         offset="0.857147"
         id="stop2575" />
      <stop
         stop-color="#ebb01a"
         offset="1"
         id="stop2577" />
    </linearGradient>
  </defs>
  <g
     inkscape:label="Layer 1"
     inkscape:groupmode="layer"
     id="layer1"
     transform="translate(-134.86754,-186.20446)">
    <g
       id="g4336"
       transform="translate(51.13877,31.794757)">
      <path
         d="m 96.22877,154.4097 c 6.90232,0 12.5,5.5977 12.5,12.5 0,6.90232 -5.59768,12.50001 -12.5,12.50001 -6.902312,0 -12.499998,-5.59769 -12.499998,-12.50001 0,-6.9023 5.597686,-12.5 12.499998,-12.5"
         style="fill:#2a6438;fill-opacity:1;fill-rule:evenodd;stroke:none;stroke-width:0.0360096"
         id="path24" />
      <path
         d="m 96.229129,159.32969 c 2.252042,0 4.275831,0.98306 5.664371,2.54336 l 6.72256,6.72298 c -0.74792,5.54404 -5.13208,9.93684 -10.672514,10.697 l -6.527454,-6.52746 c -1.689568,-1.39032 -2.766974,-3.49724 -2.766974,-5.85587 0,-4.18575 3.3939,-7.58001 7.580011,-7.58001"
         style="fill:#000000;fill-opacity:0.4;fill-rule:evenodd;stroke:none;stroke-width:1.02074;stroke-miterlimit:4;stroke-dasharray:none"
         id="path26"
         sodipodi:nodetypes="cccccsc" />
      <path
         d="m 96.229129,159.32969 c 4.185391,0 7.579651,3.39426 7.579651,7.58001 0,4.1854 -3.39426,7.58001 -7.579651,7.58001 -4.186111,0 -7.580011,-3.39461 -7.580011,-7.58001 0,-4.18575 3.3939,-7.58001 7.580011,-7.58001 z m 0,1.45335 c 3.383097,0 6.126301,2.74321 6.126301,6.12666 0,3.38346 -2.743204,6.12667 -6.126301,6.12667 -3.383458,0 -6.126666,-2.74321 -6.126666,-6.12667 0,-3.38345 2.743208,-6.12666 6.126666,-6.12666 z m -1.231527,7.39852 -2.492221,-4.63514 c 0,0 -0.200573,-0.33742 -0.08247,-0.45589 0.118472,-0.11883 0.660415,0.2301 0.660415,0.2301 l 4.183951,2.23152 c 0,0 0.314003,0.1678 0.514579,0.57291 0.200219,0.40474 2.362954,4.40361 2.362954,4.40361 0,0 0.0842,0.2319 0.018,0.30608 -0.0666,0.0742 -0.319043,0.007 -0.441481,-0.0594 -0.122428,-0.067 -4.464827,-2.39572 -4.464827,-2.39572 0,0 -0.177887,-0.0778 -0.258909,-0.19805 z m 0.503414,-0.98306 1.008988,-0.96613 -2.010054,-1.24774 c 0,0 -0.252427,-0.18221 -0.348932,-0.16348 -0.09614,0.0187 0.126394,0.33813 0.126394,0.33813 l 1.223604,2.03922"
         style="fill:#ffffff;fill-opacity:1;fill-rule:evenodd;stroke:none;stroke-width:1.02074;stroke-miterlimit:4;stroke-dasharray:none"
         id="path28" />
    </g>
    <g
       id="g4331"
       transform="translate(54.565984,31.796982)">
      <path
         d="m 57.603313,154.40765 c 6.902372,0 12.5001,5.5974 12.5001,12.49966 0,6.90261 -5.597728,12.5 -12.5001,12.5 -6.902406,0 -12.4999,-5.59739 -12.4999,-12.5 0,-6.90226 5.597494,-12.49966 12.4999,-12.49966"
         style="fill:#22549b;fill-opacity:1;fill-rule:evenodd;stroke:none;stroke-width:0.0333814"
         id="path18-2" />
      <path
         id="path18-2-9"
         style="fill:#000000;fill-opacity:0.4;fill-rule:evenodd;stroke:none;stroke-width:0.0333813"
         d="m 69.721169,169.98475 -5.635066,-5.63507 -0.19413,0.31735 -6.231628,-6.23212 -1.370138,8.09515 -1.558396,-1.55497 -3.396003,2.16914 -0.442532,1.27136 3.516293,3.51483 -0.445463,1.51781 5.775894,5.77638 c 4.872506,-0.83962 8.780723,-4.50052 9.981169,-9.23986 z" />
      <path
         d="m 57.575052,158.46317 -0.02841,0.0284 -0.02844,0.0568 -0.02841,0.0284 -0.02844,0.0571 -0.02854,0.0284 -0.0283,0.0284 -0.02858,0.0568 -0.02841,0.0287 -0.0283,0.0568 -0.02841,0.0284 -0.02858,0.0568 -0.02841,0.0287 -0.02844,0.0568 -0.02841,0.0284 -0.02831,0.0568 -0.02858,0.0571 -0.02841,0.0284 -0.02858,0.0571 -0.02827,0.028 -0.02858,0.0571 -0.02841,0.0284 -0.0283,0.0571 -0.02854,0.0568 -0.0283,0.0284 -0.02858,0.0568 -0.02841,0.0284 -0.0283,0.0571 -0.02854,0.0284 -0.02844,0.0568 -0.02827,0.0571 -0.02858,0.0284 -0.02854,0.0568 -0.02831,0.0571 -0.02844,0.028 -0.02841,0.0571 -0.02844,0.0568 -0.02854,0.0571 -0.0283,0.0284 -0.02854,0.0568 -0.0283,0.0571 -0.02844,0.0284 -0.02841,0.0568 -0.02831,0.0568 -0.02867,0.0571 -0.02844,0.0284 -0.02827,0.0571 -0.02844,0.0568 -0.02854,0.0568 -0.02831,0.0568 -0.02858,0.0571 -0.02841,0.0284 -0.02831,0.0568 -0.02854,0.0571 -0.02844,0.0568 -0.02827,0.0568 -0.02858,0.0571 -0.02841,0.0568 -0.02844,0.0571 -0.02844,0.0568 -0.02841,0.0568 -0.02844,0.0568 -0.02841,0.0571 -0.02858,0.0568 -0.02841,0.0854 -0.02844,0.0568 -0.02841,0.0571 -0.02844,0.0568 -0.02831,0.0568 -0.02854,0.0571 -0.02844,0.0852 -0.02841,0.0568 -0.02844,0.0855 -0.02827,0.0568 -0.02858,0.0855 -0.02841,0.0854 -0.02831,0.0568 -0.02858,0.0852 -0.02841,0.0854 -0.02844,0.1135 -0.02841,0.0854 -0.02844,0.11384 -0.02841,0.1135 -0.02831,0.11382 -0.02858,0.17058 -0.02854,0.31278 v 0.19896 l 0.02854,0.25603 0.02858,0.14221 0.02831,0.1135 0.02841,0.0854 0.02844,0.1135 0.02841,0.0854 0.02844,0.0855 0.02841,0.0568 0.02858,0.0854 0.02831,0.0568 0.02841,0.0852 0.02858,0.0571 0.02827,0.0852 0.02844,0.0571 0.02841,0.0852 0.02844,0.0571 0.02854,0.0852 0.02831,0.0568 0.02844,0.0571 0.02841,0.0568 0.02844,0.0852 0.02841,0.0574 0.02858,0.0564 0.02841,0.0568 0.02844,0.0855 0.02841,0.0571 0.02844,0.0568 0.02844,0.0568 0.02841,0.0852 0.02858,0.0571 0.02827,0.0568 0.02844,0.0571 0.02854,0.0852 0.02831,0.0571 0.02841,0.0568 0.02858,0.0568 0.02831,0.0855 0.02854,0.0568 0.02844,0.0855 0.02827,0.0568 0.02844,0.0571 0.02867,0.0852 0.02831,0.0568 0.02841,0.0854 0.02844,0.0568 0.0283,0.0852 0.02854,0.0571 0.0283,0.0568 0.02854,0.0855 0.02844,0.0855 0.02841,0.0568 0.02844,0.0852 0.02831,0.0855 0.02854,0.0854 0.02858,0.0852 0.02827,0.0854 0.02844,0.0852 0.02854,0.0855 0.0283,0.0852 0.02841,0.11384 0.02858,0.0854 0.0283,0.0852 0.02854,0.11351 0.0283,0.11382 0.02841,0.11383 0.02858,0.0852 h -0.398107 v -0.11341 l -0.02844,-0.11383 -0.02841,-0.14221 -0.02844,-0.11382 -0.02854,-0.0852 -0.0283,-0.11351 -0.02854,-0.0858 -0.0283,-0.0852 -0.02845,-0.11349 -0.02841,-0.0571 -0.02831,-0.0852 -0.02867,-0.0855 -0.02844,-0.0852 -0.02827,-0.0571 -0.02844,-0.0852 -0.02854,-0.0854 -0.02831,-0.0568 -0.02858,-0.0855 -0.02841,-0.0568 -0.02831,-0.0568 -0.02854,-0.0854 -0.02844,-0.0568 -0.02827,-0.0571 -0.02858,-0.0568 -0.02841,-0.0571 -0.02844,-0.0564 -0.02844,-0.0571 -0.02841,-0.0568 -0.02844,-0.0571 -0.02841,-0.0852 -0.02858,-0.0571 -0.02841,-0.0284 -0.02844,-0.0568 -0.02841,-0.0568 -0.02844,-0.0571 -0.02831,-0.0568 -0.02854,-0.0284 -0.02845,-0.0571 -0.02841,-0.0568 -0.02844,-0.0568 -0.02827,-0.0287 -0.02858,-0.0568 -0.02841,-0.0284 -0.02831,-0.0568 -0.02858,-0.0571 -0.02841,-0.0284 -0.02844,-0.0571 -0.02841,-0.028 -0.02844,-0.0571 -0.02841,-0.028 -0.02831,-0.0574 -0.02858,-0.0284 -0.02854,-0.028 -0.02831,-0.0571 -0.02841,-0.0284 -0.02858,-0.0571 -0.02827,-0.0284 -0.02858,-0.0284 -0.02841,-0.0568 -0.02831,-0.0284 -0.02858,-0.0287 -0.02841,-0.0568 -0.02831,-0.0284 -0.02854,-0.0284 -0.02844,-0.0287 -0.02841,-0.0284 -0.02844,-0.0284 -0.02841,-0.0568 -0.02831,-0.0284 -0.02858,-0.0287 -0.02854,-0.0284 -0.02844,-0.0284 -0.02827,-0.0284 -0.02858,-0.0284 -0.02827,-0.0284 -0.02844,-0.0287 -0.02854,-0.0284 -0.02858,-0.0284 -0.02831,-0.0284 -0.02841,-0.0284 -0.02844,-0.0287 -0.02841,-0.0284 -0.02844,-0.0284 -0.02841,-0.0284 -0.02844,-0.0284 -0.02854,-0.0287 -0.02831,-0.028 -0.05685,-0.0284 -0.02858,-0.0287 -0.02841,-0.0284 -0.02831,-0.0284 -0.02854,-0.0284 -0.05675,-0.0287 -0.02841,-0.0284 -0.02844,-0.0284 -0.05698,-0.0284 -0.02827,-0.0284 -0.05698,-0.0284 -0.05688,-0.0287 -0.02841,-0.0284 -0.05685,-0.0284 -0.02844,-0.0284 -0.05685,-0.0284 -0.05698,-0.0287 -0.05685,-0.0284 -0.08528,-0.0284 -0.05685,-0.0284 -0.08515,-0.0284 -0.08539,-0.0287 -0.113697,-0.0284 -0.170578,-0.0284 h -0.426514 l -0.17068,0.0284 -0.11373,0.0284 -0.08526,0.0287 -0.08528,0.0284 -0.05685,0.0284 -0.08543,0.0284 -0.05672,0.0284 -0.05685,0.0287 -0.05698,0.0284 -0.05685,0.0284 -0.05675,0.0284 -0.02854,0.0284 -0.05685,0.0287 -0.05685,0.0284 -0.02831,0.0284 -0.02841,0.0284 -0.02858,0.0284 -0.05685,0.0284 -0.02844,0.0287 -0.02841,0.0284 -0.05698,0.0284 -0.02831,0.0284 -0.02854,0.0287 -0.02844,0.0284 -0.02831,0.028 -0.02854,0.0287 -0.02844,0.0284 -0.02854,0.0568 -0.02831,0.0284 -0.02854,0.0287 -0.02831,0.0284 -0.02841,0.0568 -0.02844,0.0284 -0.02854,0.0287 -0.02844,0.0568 -0.02831,0.0284 -0.02841,0.0568 -0.02844,0.0571 -0.02841,0.0568 -0.02858,0.0568 -0.02827,0.0571 -0.02858,0.0568 -0.02845,0.0855 -0.02827,0.0852 -0.02858,0.0854 -0.02841,0.11349 -0.02831,0.1422 -0.02854,0.17058 v 0.85323 l 0.02854,0.19896 0.02831,0.17058 0.02841,0.14187 0.02858,0.0854 0.02827,0.11384 0.02845,0.11382 0.02858,0.0568 0.02827,0.0855 0.02858,0.0852 0.02841,0.0854 0.02844,0.0568 0.02841,0.0571 0.02831,0.0852 0.02844,0.0568 0.02854,0.0571 0.02844,0.0568 0.02841,0.0571 0.02831,0.0568 0.02854,0.0568 0.02831,0.0284 h 0.05698 l 0.02854,-0.0568 0.02831,-0.0284 0.02844,-0.0568 0.02854,-0.0571 0.02831,-0.0287 0.02854,-0.0568 0.02844,-0.0568 0.02841,-0.0284 0.02844,-0.0568 0.02841,-0.0284 0.02844,-0.0571 0.02858,-0.0284 0.02841,-0.0568 0.02831,-0.0287 0.02841,-0.0568 0.02844,-0.0284 0.02841,-0.0284 0.02844,-0.0571 0.02854,-0.0284 0.02831,-0.0284 0.02844,-0.0284 0.02854,-0.0284 0.02831,-0.0571 0.02841,-0.0284 0.02858,-0.0284 0.02827,-0.0284 0.02858,-0.0287 0.02844,-0.0284 0.02827,-0.0284 0.02858,-0.0284 0.05685,-0.0287 0.02841,-0.028 0.02844,-0.0287 0.02841,-0.0284 0.05688,-0.0284 0.02854,-0.0284 0.05672,-0.0284 0.05685,-0.0284 0.02844,-0.0287 0.05698,-0.0284 0.08528,-0.0284 0.05685,-0.0284 0.08526,-0.0287 0.08529,-0.028 0.113697,-0.0284 0.19912,-0.0287 h 0.454822 l 0.170712,0.0287 0.142238,0.0284 0.08529,0.028 0.05685,0.0287 0.08515,0.0284 0.05698,0.0284 0.05685,0.0284 0.02831,0.0287 0.05685,0.0284 0.05698,0.0284 0.02841,0.0284 0.05675,0.0284 0.02854,0.0284 0.02844,0.0287 0.02841,0.028 0.02844,0.0287 0.05685,0.0284 0.02841,0.0284 0.02831,0.0284 0.02858,0.0287 0.02854,0.0568 0.02844,0.0284 0.02827,0.0284 0.02858,0.0287 0.02827,0.0284 0.02844,0.0568 0.02854,0.0284 0.02858,0.0284 0.02831,0.0571 0.02841,0.0284 0.02844,0.0568 0.02841,0.0287 0.02844,0.0568 0.02854,0.0568 0.02831,0.0287 0.02841,0.0564 0.02858,0.0571 0.02831,0.0568 0.02841,0.0287 0.02858,0.0568 0.02827,0.0852 0.02858,0.0571 0.02841,0.0568 0.02831,0.0568 0.02854,0.0571 0.02858,0.0854 0.02831,0.0568 0.02841,0.0852 0.02844,0.0571 0.02841,0.0852 0.02844,0.0568 h -0.08529 l -0.11383,0.0287 -0.05672,0.0284 -0.05685,0.0284 -0.05698,0.0284 -0.02831,0.0284 -0.02858,0.0287 -0.02841,0.0284 -0.02831,0.0284 -0.02854,0.0568 -0.02844,0.0287 -0.02841,0.0852 -0.02844,0.14221 v 0.0568 l 0.02844,0.1422 0.02841,0.0571 0.02844,0.0568 0.02854,0.0284 0.02831,0.0568 0.02841,0.0287 0.05688,0.0284 0.02841,0.0284 0.02858,0.0284 0.05685,0.0284 0.08526,0.0284 0.198986,0.0287 h 0.257405 l -0.02998,0.82419 -0.02844,0.17091 -0.02841,0.1135 -0.02844,0.0855 -0.02827,0.0852 -0.02858,0.0571 -0.02841,0.0568 -0.02831,0.0568 -0.02858,0.0287 -0.02841,0.0568 -0.02844,0.0284 -0.02841,0.0284 -0.05685,0.0287 -0.02831,0.0284 -0.08543,0.0284 -0.142238,0.0284 H 54.67483 l -0.08526,-0.0284 -0.0853,-0.0284 -0.05712,-0.0284 -0.02831,-0.0287 -0.05685,-0.0284 -0.02841,-0.0284 -0.02844,-0.0284 -0.02841,-0.0284 -0.05698,-0.0287 -0.02831,-0.0568 -0.02844,-0.0284 -0.02841,-0.0284 -0.02858,-0.0284 -0.02841,-0.0287 -0.02831,-0.0568 -0.02854,-0.0284 -0.02831,-0.0284 -0.02844,-0.0571 -0.02841,-0.0284 -0.02844,-0.0568 -0.02854,-0.0284 -0.02844,-0.0571 -0.02827,-0.0284 -0.02844,-0.0284 h -0.02854 l -0.02831,0.0284 -0.02858,0.0855 -0.02841,0.11349 -0.02831,0.0854 -0.02854,0.17058 -0.02844,0.1422 -0.02841,0.31279 v 0.42627 l 0.02841,0.25604 0.02844,0.14221 0.02854,0.0852 0.02831,0.11383 0.02841,0.0568 0.02858,0.0571 0.02831,0.0852 0.02854,0.0287 0.02844,0.0568 0.02827,0.0568 0.02844,0.0284 0.02854,0.0284 0.02844,0.0287 0.02841,0.0568 0.02844,0.0284 0.02831,0.0284 0.02854,0.0287 0.05672,0.0284 0.02858,0.0284 0.02841,0.0284 0.02844,0.0287 0.05685,0.028 0.05685,0.0287 0.05685,0.0284 0.05685,0.0284 0.05688,0.0284 0.08526,0.0284 0.11383,0.0284 0.142138,0.0287 h 0.312817 l 0.17058,-0.0287 0.08526,-0.0284 0.0853,-0.0284 0.05685,-0.0284 0.02844,-0.0284 0.05685,-0.0284 0.05685,-0.0287 0.02844,-0.028 0.02841,-0.0287 0.05685,-0.0284 0.02858,-0.0284 0.02841,-0.0284 0.02844,-0.0287 0.02841,-0.0284 0.02844,-0.0284 0.02844,-0.0568 0.02841,-0.0287 0.02858,-0.0284 0.02827,-0.0284 0.02844,-0.0568 0.02854,-0.0287 0.02831,-0.0568 0.02841,-0.0284 0.02858,-0.0568 0.02831,-0.0571 0.02854,-0.0568 0.02844,-0.0571 0.02827,-0.0568 0.02845,-0.0568 0.02867,-0.0568 0.02831,-0.0854 0.02841,-0.0568 0.02844,-0.0852 0.0283,-0.0854 0.02854,-0.11382 0.0283,-0.0852 0.02854,-0.11383 0.02844,-0.11384 0.02841,-0.1422 0.02844,-0.1422 0.02831,-0.17058 0.02854,-0.19896 0.02858,-0.2557 0.02827,-0.34116 v -0.62556 h 0.454955 v 0.0568 0.8529 l -0.02841,0.22766 -0.02831,0.17058 -0.02858,0.17058 -0.02841,0.11349 -0.02858,0.11383 -0.02827,0.0852 -0.02858,0.11384 -0.02841,0.0854 -0.0283,0.0852 -0.02854,0.0855 -0.0283,0.0852 -0.02858,0.0855 -0.02841,0.0571 -0.0283,0.0852 -0.02854,0.0568 -0.02844,0.0855 -0.02827,0.0852 -0.02858,0.0571 -0.02854,0.0852 -0.02831,0.0568 -0.02844,0.0854 -0.02841,0.0855 -0.02844,0.0852 -0.02854,0.0852 -0.0283,0.11384 -0.02854,0.19894 v 0.0287 l 0.02854,0.25571 0.0283,0.0854 0.02854,0.0852 0.02844,0.057 0.02841,0.0568 0.02844,0.0568 0.02831,0.0568 0.02854,0.0571 0.02858,0.0568 0.02827,0.0284 0.02844,0.0571 0.02854,0.0284 0.0283,0.0568 0.02841,0.0287 0.02858,0.0284 0.0283,0.0284 0.02854,0.0571 0.0283,0.0284 0.02841,0.0284 0.02858,0.0284 0.02827,0.0284 0.02858,0.0284 0.02841,0.0287 0.02858,0.0284 0.02831,0.0284 0.02841,0.0284 0.02844,0.0284 0.02841,0.0284 0.02858,0.0284 0.02841,0.0287 0.0283,0.0284 0.02841,0.0284 0.02858,0.0284 0.0283,0.0284 0.02854,0.0284 0.05685,0.0287 0.02844,0.0284 0.02841,0.0284 h 0.08528 l 0.05685,-0.0284 0.02844,-0.0284 0.02841,-0.0287 0.0283,-0.0284 0.02854,-0.0284 0.05688,-0.0284 0.02841,-0.0284 0.02858,-0.0284 0.02827,-0.0287 0.02844,-0.0284 0.02854,-0.0284 0.02831,-0.0284 0.02854,-0.0284 0.0283,-0.0284 0.02844,-0.0284 0.02841,-0.0287 0.02844,-0.0284 0.02854,-0.0568 0.02844,-0.0284 0.02841,-0.0284 0.02844,-0.0287 0.02841,-0.0284 0.02844,-0.0568 0.02854,-0.0287 0.02831,-0.0284 0.02858,-0.0568 0.02841,-0.0284 0.02831,-0.0571 0.02854,-0.0284 0.02858,-0.0568 0.02827,-0.0568 0.02844,-0.0571 0.02844,-0.0568 0.02841,-0.0571 0.02844,-0.0852 0.02841,-0.0854 0.02844,-0.14221 v -0.22733 l -0.02844,-0.17057 -0.02841,-0.11383 -0.02844,-0.0852 -0.02841,-0.0854 -0.02844,-0.0852 -0.02844,-0.0571 -0.02827,-0.0852 -0.02858,-0.0568 -0.02854,-0.0855 -0.02831,-0.0854 -0.02841,-0.0568 -0.02858,-0.0852 -0.02831,-0.0568 -0.02854,-0.0855 -0.02844,-0.0854 -0.02841,-0.0852 -0.02844,-0.0854 -0.02841,-0.0855 -0.02844,-0.0852 -0.02854,-0.1135 -0.02844,-0.11383 -0.02841,-0.0854 -0.02844,-0.14221 -0.0283,-0.17058 -0.02854,-0.1422 -0.02831,-0.28442 v -0.56848 -0.2557 h 0.426547 v 0.6536 l 0.02841,0.3415 0.02831,0.22733 0.02854,0.19895 0.02858,0.17058 0.02827,0.14221 0.02844,0.1422 0.02844,0.11383 0.02841,0.11383 0.02844,0.0852 0.02841,0.11383 0.02844,0.0855 0.02841,0.0852 0.02844,0.0568 0.02841,0.0854 0.02844,0.0568 0.02844,0.0568 0.02841,0.0568 0.02844,0.0571 0.02854,0.0568 0.02831,0.0571 0.02841,0.0568 0.02844,0.0284 0.02831,0.0568 0.02854,0.0287 0.02858,0.0568 0.02827,0.0284 0.02845,0.0284 0.02854,0.0287 0.02844,0.0568 0.02827,0.0284 0.02858,0.0284 0.02841,0.0287 0.02844,0.0284 0.05685,0.0284 0.02844,0.0284 0.02854,0.0287 0.02844,0.028 0.05685,0.0287 0.05672,0.0284 0.02844,0.0284 0.08539,0.0284 0.05672,0.0284 0.08543,0.0284 0.170679,0.0287 h 0.312717 l 0.142104,-0.0287 0.11373,-0.0284 0.08526,-0.0284 0.05685,-0.0284 0.08528,-0.0284 0.02858,-0.0284 0.05685,-0.0287 0.05685,-0.028 0.02854,-0.0287 0.02831,-0.0284 0.02844,-0.0284 0.05672,-0.0284 0.02854,-0.0287 0.02858,-0.0284 0.02827,-0.0284 0.02844,-0.0568 0.02854,-0.0287 0.02831,-0.0284 0.02844,-0.0284 0.02854,-0.0568 0.0283,-0.0568 0.02854,-0.0287 0.02831,-0.0852 0.02841,-0.0571 0.02844,-0.0568 0.02845,-0.11383 0.02854,-0.0852 0.02844,-0.1422 0.02841,-0.25604 v -0.42628 l -0.02841,-0.31278 -0.02844,-0.1422 -0.02854,-0.14222 -0.02845,-0.11382 -0.02844,-0.1135 -0.02841,-0.0855 -0.02831,-0.0284 h -0.05685 l -0.02854,0.0568 -0.02844,0.0571 -0.02831,0.0284 -0.02854,0.0568 -0.02844,0.0284 -0.02827,0.0571 -0.02858,0.0284 -0.02854,0.0284 -0.02831,0.0568 -0.02841,0.0287 -0.02844,0.0284 -0.02831,0.0284 -0.02854,0.0284 -0.02844,0.0568 -0.05685,0.0287 -0.02841,0.0284 -0.02858,0.0284 -0.02831,0.0284 -0.05698,0.0284 -0.02827,0.0287 -0.05698,0.0284 -0.08543,0.0284 -0.08515,0.0284 h -0.312803 l -0.142005,-0.0284 -0.08539,-0.0284 -0.02844,-0.0284 -0.05685,-0.0287 -0.02841,-0.0284 -0.02844,-0.0284 -0.02858,-0.0568 -0.02827,-0.0287 -0.02844,-0.0568 -0.02841,-0.0568 -0.02831,-0.0571 -0.02867,-0.0852 -0.02844,-0.0854 -0.02831,-0.11349 -0.02841,-0.14222 -0.02858,-0.85288 h 0.312851 l 0.170545,-0.0287 0.08528,-0.0284 0.05685,-0.0284 0.05698,-0.0284 0.02827,-0.0284 0.02858,-0.0284 0.02841,-0.0287 0.02831,-0.0284 0.02858,-0.0284 0.02827,-0.0571 0.02858,-0.0568 0.02827,-0.0568 v -0.28441 l -0.02827,-0.0852 -0.02858,-0.0571 -0.02827,-0.0284 -0.02858,-0.0284 -0.02831,-0.0284 -0.02841,-0.0284 -0.02858,-0.0287 -0.02827,-0.0284 -0.02858,-0.0284 -0.05672,-0.0284 -0.08529,-0.0284 -0.113831,-0.0287 -0.118137,-9.5e-4 0.03288,-0.0557 0.02841,-0.0852 0.02844,-0.0571 0.02841,-0.0852 0.02844,-0.0568 0.02827,-0.0854 0.02858,-0.0571 0.02854,-0.0568 0.02831,-0.0568 0.02844,-0.0571 0.02854,-0.0852 0.02831,-0.0568 0.02841,-0.0287 0.02858,-0.0568 0.02827,-0.0571 0.02858,-0.0564 0.02841,-0.0287 0.02831,-0.0568 0.02858,-0.0568 0.02827,-0.0287 0.02858,-0.0568 0.02827,-0.0284 0.02858,-0.0571 0.02841,-0.0284 0.02831,-0.0284 0.02854,-0.0568 0.02831,-0.0284 0.02858,-0.0287 0.02841,-0.0284 0.02844,-0.0284 0.02841,-0.0568 0.02858,-0.0287 0.02827,-0.0284 0.02858,-0.0284 0.05672,-0.0284 0.02858,-0.0287 0.02841,-0.028 0.02844,-0.0287 0.05685,-0.0284 0.02854,-0.0284 0.02831,-0.0284 0.05685,-0.0284 0.05685,-0.0284 0.02858,-0.0287 0.05672,-0.0284 0.05685,-0.0284 0.08528,-0.0284 0.05685,-0.0287 0.08529,-0.028 0.142105,-0.0284 0.170712,-0.0287 h 0.454955 l 0.199087,0.0287 0.113597,0.0284 0.08526,0.028 0.08529,0.0287 0.05685,0.0284 0.08543,0.0284 0.05672,0.0284 0.02854,0.0287 0.05702,0.0284 0.05685,0.0284 0.02827,0.0284 0.05698,0.0284 0.02844,0.0284 0.02841,0.0287 0.02844,0.028 0.05685,0.0287 0.02844,0.0284 0.02841,0.0284 0.02844,0.0284 0.02854,0.0287 0.02818,0.0284 0.02858,0.0284 0.02841,0.0284 0.02831,0.057 0.02854,0.0284 0.02858,0.0284 0.02827,0.0284 0.02844,0.0284 0.02854,0.0571 0.02831,0.0284 0.02854,0.0284 0.02844,0.0568 0.02831,0.0287 0.02854,0.0568 0.02831,0.0284 0.02854,0.0571 0.02844,0.0284 0.02841,0.0568 0.02845,0.0284 0.02831,0.0568 0.02854,0.0568 0.02844,0.0287 0.02827,0.0571 0.02858,0.0568 0.02854,0.0284 0.02831,0.0568 h 0.05698 l 0.02831,-0.0284 0.02854,-0.0568 0.02844,-0.0568 0.02841,-0.0571 0.02844,-0.0568 0.02841,-0.0571 0.02844,-0.0568 0.02841,-0.0852 0.02858,-0.0571 0.02831,-0.0568 0.02841,-0.0855 0.02844,-0.0852 0.02841,-0.0854 0.02844,-0.0568 0.02841,-0.11383 0.02844,-0.11383 0.02844,-0.0854 0.02854,-0.14188 0.02844,-0.17057 0.02827,-0.19896 v -0.85323 l -0.02827,-0.17058 -0.02844,-0.1422 -0.02854,-0.1135 -0.02844,-0.0855 -0.02844,-0.0852 -0.02841,-0.0854 -0.02844,-0.0568 -0.02841,-0.0571 -0.02844,-0.0568 -0.02841,-0.0568 -0.02831,-0.0571 -0.02858,-0.0568 -0.02841,-0.0284 -0.02844,-0.0568 -0.02841,-0.0287 -0.02844,-0.0568 -0.02841,-0.0284 -0.02844,-0.0284 -0.02854,-0.0287 -0.02831,-0.0284 -0.02858,-0.0568 -0.02841,-0.0284 -0.02831,-0.0287 -0.02854,-0.028 -0.02858,-0.0284 -0.02827,-0.0287 -0.02844,-0.0284 -0.05685,-0.0284 -0.02845,-0.0284 -0.02841,-0.0287 -0.05698,-0.0284 -0.02831,-0.0284 -0.02854,-0.0284 -0.02831,-0.0284 -0.05698,-0.0284 -0.05685,-0.0287 -0.02844,-0.0284 -0.05685,-0.0284 -0.05685,-0.0284 -0.05698,-0.0284 -0.05672,-0.0287 -0.05685,-0.0284 -0.08529,-0.0284 -0.05685,-0.0284 -0.08543,-0.0284 -0.08512,-0.0287 -0.113864,-0.0284 -0.142238,-0.0284 h -0.454822 l -0.170578,0.0284 -0.113831,0.0284 -0.08528,0.0287 -0.08526,0.0284 -0.05685,0.0284 -0.08528,0.0284 -0.05685,0.0284 -0.05698,0.0287 -0.05672,0.0284 -0.02844,0.0284 -0.05698,0.0284 -0.02845,0.0284 -0.05672,0.0287 -0.02854,0.0284 -0.05685,0.0284 -0.05675,0.0284 -0.02854,0.0284 -0.02844,0.0284 -0.05685,0.0287 -0.02854,0.0284 -0.02831,0.0284 -0.02841,0.0284 -0.02844,0.0287 -0.05685,0.0284 -0.02844,0.028 -0.02841,0.0287 -0.02844,0.0284 -0.02841,0.0284 -0.02858,0.0284 -0.02831,0.0284 -0.02841,0.0287 -0.02858,0.0284 -0.02827,0.0284 -0.02858,0.0284 -0.02841,0.0284 -0.02844,0.0287 -0.02841,0.0284 -0.02858,0.0284 -0.02831,0.0284 -0.02854,0.0284 -0.02831,0.0284 -0.02841,0.0287 -0.02858,0.0284 -0.02827,0.0568 -0.02858,0.0284 -0.02827,0.0284 -0.02858,0.0287 -0.02831,0.0284 -0.02841,0.0568 -0.02858,0.0284 -0.02827,0.0287 -0.02858,0.0284 -0.02841,0.0568 -0.02831,0.0284 -0.02854,0.0284 -0.02844,0.0571 -0.02831,0.0284 -0.02854,0.0571 -0.02858,0.028 -0.02827,0.0284 -0.02844,0.0574 -0.02841,0.028 -0.02844,0.0571 -0.02841,0.028 -0.02844,0.057 -0.02858,0.0284 -0.02827,0.0571 -0.02845,0.0568 -0.02841,0.0284 -0.02831,0.0568 -0.02867,0.0287 -0.02844,0.0568 -0.02831,0.0568 -0.02841,0.0571 -0.02858,0.0284 -0.02827,0.0568 -0.02844,0.0571 -0.02854,0.0568 -0.02844,0.0568 -0.02841,0.0284 -0.02844,0.0571 -0.02844,0.0852 -0.02841,0.0571 -0.02858,0.0568 -0.02827,0.0571 -0.02844,0.0564 -0.02854,0.0571 -0.02844,0.0568 -0.02827,0.0571 -0.02858,0.0568 -0.02854,0.0854 -0.02831,0.0568 -0.02844,0.0568 -0.02841,0.0855 -0.02831,0.0568 -0.02854,0.0855 -0.02844,0.0568 -0.02841,0.0854 -0.02844,0.0852 -0.02844,0.0855 -0.02841,0.0568 -0.02844,0.0855 -0.02841,0.1135 -0.02844,0.0852 -0.02841,0.0858 -0.02844,0.11349 -0.02841,0.0852 -0.02844,0.11383 -0.02844,0.14221 -0.02827,0.11383 v 0.11349 l -0.374106,-9.4e-4 0.03271,-0.0557 0.02844,-0.11349 0.02841,-0.11383 0.02844,-0.11384 0.02841,-0.0854 0.02844,-0.0852 0.02854,-0.11349 0.02831,-0.0858 0.02858,-0.0852 0.02841,-0.0854 0.02831,-0.0852 0.02854,-0.0852 0.02858,-0.0855 0.02827,-0.0852 0.02844,-0.0855 0.02844,-0.0568 0.02841,-0.0854 0.02844,-0.0852 0.02841,-0.0571 0.02844,-0.0854 0.02841,-0.0568 0.02844,-0.0852 0.02841,-0.0568 0.02844,-0.0571 0.02844,-0.0855 0.02841,-0.0564 0.02844,-0.0854 0.02854,-0.0568 0.02831,-0.0854 0.02841,-0.0568 0.02844,-0.0571 0.02831,-0.0568 0.02854,-0.0855 0.02858,-0.0568 0.02827,-0.0568 0.02844,-0.0571 0.02854,-0.0854 0.02844,-0.0568 0.02827,-0.0568 0.02858,-0.0568 0.02841,-0.0855 0.02844,-0.0568 0.02844,-0.0568 0.02841,-0.0571 0.02844,-0.0854 0.02854,-0.0564 0.02844,-0.0571 0.02827,-0.0568 0.02858,-0.0855 0.02841,-0.0568 0.02831,-0.0571 0.02844,-0.0852 0.02867,-0.0571 0.02831,-0.0852 0.02841,-0.0568 0.02844,-0.0855 0.02827,-0.0568 0.02858,-0.0855 0.02844,-0.0852 0.02841,-0.0854 0.02844,-0.0855 0.02841,-0.0852 0.02844,-0.0852 0.02827,-0.11384 0.02858,-0.1422 0.02854,-0.17058 v -0.48336 l -0.02854,-0.19896 -0.02858,-0.1422 -0.02827,-0.11383 -0.02844,-0.1422 -0.02841,-0.0852 -0.02844,-0.0854 -0.02841,-0.11383 -0.02844,-0.0852 -0.02858,-0.0568 -0.02827,-0.0855 -0.02844,-0.0852 -0.02841,-0.0854 -0.02831,-0.0568 -0.02867,-0.0571 -0.02844,-0.0852 -0.02831,-0.0568 -0.02841,-0.0855 -0.02858,-0.0571 -0.02827,-0.0568 -0.02844,-0.0568 -0.02854,-0.0571 -0.02844,-0.0568 -0.02841,-0.0568 -0.02844,-0.0571 -0.02844,-0.0568 -0.02841,-0.0852 -0.02858,-0.0571 -0.02827,-0.0568 -0.02844,-0.0568 -0.02854,-0.0571 -0.02844,-0.0284 -0.02827,-0.0568 -0.02858,-0.0571 -0.02854,-0.0568 -0.02831,-0.0568 -0.02844,-0.0571 -0.02841,-0.0568 -0.02831,-0.0284 -0.02854,-0.0568 -0.02844,-0.0571 -0.02841,-0.0568 -0.02844,-0.0571 -0.02844,-0.0568 -0.02841,-0.0284 -0.02844,-0.057 -0.02841,-0.0568 -0.02844,-0.0284 -0.02841,-0.0568 -0.02844,-0.0571 -0.02841,-0.0284 -0.02844,-0.0571 -0.02844,-0.0568 -0.02827,-0.0284 -0.02858,-0.0568 -0.02854,-0.0568 -0.02831,-0.0287 -0.02841,-0.0568 -0.02858,-0.0568 -0.02831,-0.0287 -0.02854,-0.0568 -0.02844,-0.0284 -0.02841,-0.0571 -0.02844,-0.0568 -0.02841,-0.0284 -0.02844,-0.0568 -0.02854,-0.0287 -0.02844,-0.0568 -0.02841,-0.0284 -0.02844,-0.0571 -0.0283,-0.0568 -0.02854,-0.0284 -0.02831,-0.0571 -0.02854,-0.028 -0.02844,-0.0571 -0.02827,-0.0284 -0.02858,-0.0571 -0.02841,-0.028 -0.02831,-0.0287 -0.02858,-0.0568 -0.02854,-0.0284 -0.0283,-0.0568 -0.02841,-0.0287 -0.02844,-0.0568 -0.02841,-0.0284 -0.02844,-0.0571 h -0.05685 l -0.02844,0.0287"
         style="fill:#ffffff;fill-opacity:1;fill-rule:evenodd;stroke:none;stroke-width:0.0333814"
         id="path24-7" />
    </g>
    <path
       id="path4742-3"
       style="fill:#f8d548;stroke-width:0.0561864;stroke-linecap:round;stroke-dashoffset:16.6299"
       d="m 89.471253,198.70446 a 12.5,12.5 0 0 1 -12.5,12.5 12.5,12.5 0 0 1 -12.5,-12.5 12.5,12.5 0 0 1 12.5,-12.5 12.5,12.5 0 0 1 12.5,12.5 z" />
    <path
       id="path4742-3-7"
       style="fill:#000000;fill-opacity:0.3;stroke-width:0.0561864;stroke-linecap:round;stroke-dashoffset:16.6299"
       d="m 89.338278,196.88894 -6.684346,-6.68435 -2.910417,2.64532 -2.927987,-0.42737 -2.401404,0.55914 -2.894914,-1.77663 -0.757058,1.64486 0.197403,3.09232 -1.731677,6.18153 9.008753,9.00875 a 12.5,12.5 0 0 0 11.234454,-12.42818 12.5,12.5 0 0 0 -0.132807,-1.81539 z" />
    <path
       style="fill:#ffffff;stroke-width:0.0403167"
       d="m 76.306023,207.15087 c -0.8739,-0.13915 -1.5313,-0.54339 -1.99259,-1.22528 -0.21339,-0.31544 -0.32298,-0.55514 -0.66609,-1.45693 -0.3938,-1.03505 -0.50794,-1.25515 -0.73779,-1.42276 -0.61688,-0.44981 -1.67252,-0.74652 -3.1305,-0.87988 l -0.56009,-0.0512 0.0234,-0.84897 c 0.0512,-1.86125 0.33534,-3.15913 1.00375,-4.58511 l 0.16383,-0.34953 -0.16526,-0.50564 c -0.25981,-0.79495 -0.34318,-1.27277 -0.34552,-1.98034 -0.002,-0.68347 0.0561,-1.02789 0.28627,-1.68914 0.2166,-0.62228 0.4683,-1.0903 0.90535,-1.68343 l 0.19762,-0.26819 1.51801,1.00793 c 0.83491,0.55435 1.54031,1.01648 1.56756,1.02693 0.0273,0.0105 0.12256,-0.0182 0.2118,-0.0638 0.22354,-0.11404 0.79669,-0.27566 1.25617,-0.35422 0.52235,-0.0893 1.73635,-0.0893 2.2587,0 0.45948,0.0786 1.03263,0.24018 1.25616,0.35422 0.0892,0.0455 0.18456,0.0742 0.21181,0.0638 0.0272,-0.0105 0.73265,-0.47258 1.56756,-1.02693 l 1.51801,-1.00793 0.19762,0.26819 c 0.43705,0.59313 0.68875,1.06115 0.90535,1.68343 0.23017,0.66125 0.28854,1.00567 0.28627,1.68914 -0.002,0.70757 -0.0857,1.18539 -0.34553,1.98034 l -0.16525,0.50564 0.16383,0.34953 c 0.66841,1.42598 0.95253,2.72386 1.00375,4.58511 l 0.0234,0.84897 -0.56009,0.0512 c -1.45798,0.13336 -2.51362,0.43007 -3.1305,0.87988 -0.22985,0.16761 -0.34399,0.38771 -0.7378,1.42276 -0.44745,1.17604 -0.62838,1.50632 -1.05358,1.92326 -0.66311,0.65022 -1.78945,0.94142 -2.93555,0.75895 z m -0.4924,-2.35592 c 0.24579,-0.0794 0.84654,-0.16503 1.15763,-0.16503 0.31189,0 0.91205,0.0857 1.15911,0.16551 l 0.13102,0.0424 v 0.36218 0.36218 l 0.16108,-0.18611 c 0.19002,-0.21955 0.36378,-0.57883 0.69232,-1.43147 0.41516,-1.07744 0.56045,-1.34375 0.93567,-1.71508 0.27015,-0.26734 0.40529,-0.36372 0.77105,-0.54991 0.65119,-0.33149 1.52383,-0.59137 2.35673,-0.70186 l 0.21499,-0.0285 -0.026,-0.44759 c -0.12692,-2.18704 -1.01549,-4.14955 -2.48527,-5.48905 -0.16631,-0.15156 -0.30651,-0.28572 -0.31157,-0.29813 -0.005,-0.0124 0.23811,-0.18571 0.54038,-0.38511 l 0.54957,-0.36257 0.47117,0.49467 0.47116,0.49465 0.0696,-0.31352 c 0.18859,-0.85 0.0856,-1.68086 -0.30228,-2.43826 l -0.0971,-0.18954 -1.34105,0.885 c -0.73758,0.48675 -1.35479,0.885 -1.37157,0.885 -0.0168,0 -0.13437,-0.0777 -0.26131,-0.17264 -1.06212,-0.79443 -3.63285,-0.77908 -4.68985,0.028 -0.10419,0.0795 -0.20473,0.14463 -0.22342,0.14463 -0.0187,0 -0.63748,-0.39827 -1.37506,-0.88505 l -1.34105,-0.88504 -0.10565,0.20974 c -0.38606,0.76645 -0.48302,1.56479 -0.29369,2.41815 l 0.0696,0.31353 0.47116,-0.49466 0.47117,-0.49467 0.54957,0.36257 c 0.30226,0.19941 0.54543,0.37296 0.54038,0.38568 -0.005,0.0127 -0.13619,0.13694 -0.29141,0.27604 -1.46604,1.31378 -2.37832,3.32028 -2.50543,5.51057 l -0.026,0.4476 0.21498,0.0285 c 0.82835,0.10989 1.73735,0.38272 2.38913,0.7171 0.32859,0.16858 0.47683,0.27592 0.73865,0.53486 0.37531,0.37119 0.52072,0.63772 0.93556,1.71489 0.33194,0.86193 0.49506,1.20256 0.67734,1.41449 l 0.15602,0.1814 0.0115,-0.35182 0.0116,-0.35182 z m -1.35956,-4.11689 c -0.41,-0.16008 -0.70815,-0.60107 -0.70815,-1.04741 0,-0.2324 0.12783,-0.60232 0.24469,-0.70807 0.0806,-0.073 0.58534,-0.52644 1.3668,0.25501 0.78146,0.78146 0.2984,1.25662 0.22544,1.33724 -0.10885,0.12029 -0.4784,0.24496 -0.71965,0.2428 -0.11559,-0.001 -0.2997,-0.0368 -0.40913,-0.0796 z m 4.18584,-0.002 c -0.11334,-0.0436 -0.23941,-0.1161 -0.28015,-0.16111 -0.0731,-0.0808 -0.50719,-0.6738 0.27463,-1.45562 0.78146,-0.78146 1.2369,-0.2097 1.31752,-0.13674 0.045,0.0407 0.1184,0.17196 0.16321,0.29174 0.34953,0.93419 -0.54426,1.81981 -1.47521,1.46173 z"
       id="path3281"
       sodipodi:nodetypes="ssssscsscsssscccsssscscsssscsscsssssssscccssssscsscccccsscsssssccsscccsssscsscsscccsssssscssssscs" />
    <g
       id="g2602"
       transform="matrix(0.33072917,0,0,-0.33072917,-17.951599,378.62754)">
      <g
         clip-path="url(#clipPath3342)"
         id="g2600">
        <g
           id="g2598">
          <g
             id="g2596">
            <g
               clip-path="url(#clipPath3352)"
               id="g2594">
              <path
                 fill="url(#linearGradient3356)"
                 d="m 587.338,85.712 c 1.351,0.159 3.828,0.453 6.662,0.791 v 0.016 c -2.921,-0.353 -5.348,-0.648 -6.662,-0.807"
                 id="path2592"
                 style="fill:url(#linearGradient3356)" />
            </g>
          </g>
        </g>
      </g>
    </g>
    <g
       id="g2614"
       transform="matrix(0.33072917,0,0,-0.33072917,-17.951599,378.62754)">
      <g
         clip-path="url(#clipPath3368)"
         id="g2612">
        <g
           id="g2610">
          <g
             id="g2608">
            <g
               clip-path="url(#clipPath3378)"
               id="g2606">
              <path
                 fill="url(#linearGradient3382)"
                 d="m 587.338,85.712 c 1.351,0.159 3.828,0.452 6.662,0.79 v 0.017 c -2.921,-0.353 -5.348,-0.648 -6.662,-0.807"
                 id="path2604"
                 style="fill:url(#linearGradient3382)" />
            </g>
          </g>
        </g>
      </g>
    </g>
    <g
       id="g2626"
       transform="matrix(0.33072917,0,0,-0.33072917,-17.951599,378.62754)">
      <g
         clip-path="url(#clipPath3394)"
         id="g2624">
        <g
           id="g2622">
          <g
             id="g2620">
            <g
               clip-path="url(#clipPath3404)"
               id="g2618">
              <path
                 fill="url(#linearGradient3408)"
                 d="m 588.139,77.571 c -3.022,-1.527 -6.53,-4.495 -10.148,-4.551 -0.995,-0.015 -3.329,0.806 -1.738,1.875 0.709,0.479 2.798,0.962 2.649,2.071 -0.078,0.577 -0.873,0.69 -1.428,0.828 -1.747,0.426 -3.711,0.317 -5.494,0.196 -4.445,-0.299 -8.696,-2.017 -12.591,-3.911 -2.707,-1.308 -6.447,-4.136 -9.664,-2.668 -1.726,0.782 2.121,2.038 1.957,3.039 -0.19,1.175 -2.715,1.515 -4.601,1.478 -2.899,-0.055 -5.82,-0.408 -8.598,-1.255 -2.739,-0.835 -5.013,-2.401 -7.575,-3.605 -1.288,-0.603 -2.748,-1.13 -4.188,-0.869 -2.695,0.474 1.242,2.099 0.909,2.809 -0.732,1.59 -3.852,0.876 -5.17,0.602 -2.45,-0.515 -4.91,-1.318 -7.205,-2.257 -1.242,-0.509 -2.693,-1.433 -4.031,-1.611 -0.482,-0.064 -1.388,-0.137 -1.393,0.48 0,0.657 1.504,1.208 1.163,1.994 -0.29,0.675 -1.526,0.568 -2.134,0.527 -1.575,-0.118 -3.064,-0.557 -4.567,-0.972 -5.562,-1.54 -12.436,-3.218 -20.895,-4.969 -40.225,-8.316 -116.395,-18.255 -258.47,-22.842 -1.243,-0.045 -2.502,-0.089 -3.754,-0.134 0.144,-0.005 0.29,-0.009 0.432,-0.013 -0.058,0 -0.117,-0.001 -0.175,-0.002 -0.058,-10e-4 -0.116,-0.002 -0.171,-10e-4 -0.079,-0.001 -0.159,-0.001 -0.238,0 -0.091,0 -0.182,10e-4 -0.269,0 -4.201,-0.152 -8.444,-0.3 -12.74,-0.443 7.198,-0.169 14.42,-0.322 21.69,-0.452 16.425,-0.289 32.596,-0.422 48.501,-0.417 78.691,1.031 171.926,6.861 263.678,19.165 0,0 0.025,0.001 0.062,0.006 7.346,1.141 19.598,2.616 31.785,5.213 7.109,1.514 14.195,3.411 20.272,5.849 v 6.386 c -2.531,-0.457 -4.769,-0.998 -5.861,-1.546"
                 id="path2616"
                 style="fill:url(#linearGradient3408)" />
            </g>
          </g>
        </g>
      </g>
    </g>
    <g
       id="g2638"
       transform="matrix(0.33072917,0,0,-0.33072917,-17.951599,378.62754)">
      <g
         clip-path="url(#clipPath3420)"
         id="g2636">
        <g
           id="g2634">
          <g
             id="g2632">
            <g
               clip-path="url(#clipPath3430)"
               id="g2630">
              <path
                 fill="url(#linearGradient3434)"
                 d="m 566.064,113.628 c -0.379,0 -0.901,-0.105 -1.108,-0.133 -0.067,-0.009 -0.133,-0.018 -0.195,-0.032 -2.857,-0.437 -5.34,-1.342 -7.661,-2.301 -0.392,-0.157 -4.05,-1.568 -2.774,-1.957 0.106,-0.031 0.313,-0.024 0.53,-0.018 0.436,0.015 0.908,0.026 0.701,-0.259 -0.177,-0.249 -1.018,-0.482 -1.414,-0.625 -1.822,-0.656 -3.774,-1.199 -5.6,-1.855 -0.442,-0.162 -3.084,-1.129 -1.987,-1.488 0.689,-0.222 1.746,0.294 2.336,0.445 0.463,0.116 1.909,0.368 1.466,-0.193 -0.472,-0.593 -1.899,-0.869 -2.86,-1.18 -1.565,-0.495 -3.077,-1.094 -4.408,-1.764 -0.431,-0.217 -3.051,-1.453 -1.457,-1.728 0.657,-0.116 1.5,0.221 2.121,0.31 0.386,0.052 1.546,0.144 1.718,-0.113 0.256,-0.371 -1.3,-0.789 -1.714,-0.951 -0.414,-0.161 -1.369,-0.498 -2.003,-0.869 -0.734,-0.045 -1.477,-0.1 -2.208,-0.15 -0.104,0.176 -0.284,0.352 -0.427,0.468 -0.639,0.517 -1.764,0.762 -2.56,1.201 -0.228,0.126 -0.57,0.32 -0.182,0.494 0.258,0.115 0.791,0.061 1.041,0.007 0.295,-0.066 0.68,-0.249 1.023,-0.185 0.352,0.065 0.36,0.256 0.311,0.431 -0.042,0.141 -0.261,0.298 -0.387,0.422 -0.412,0.395 -0.888,0.773 -1.139,1.208 -0.064,0.11 -0.225,0.312 -0.069,0.414 0.157,0.105 0.444,0.087 0.715,0.067 0.228,-0.015 0.449,-0.031 0.576,0.025 0.683,0.285 -0.019,0.757 -0.247,1.034 -0.141,0.171 -0.203,0.398 -0.023,0.565 0.103,0.095 0.896,0.446 0.304,0.426 -0.317,-0.005 -0.655,-0.095 -0.941,-0.165 -0.591,-0.133 -1.192,-0.26 -1.737,-0.442 -0.583,-0.202 -1.124,-0.432 -1.63,-0.683 -0.287,-0.142 -1.121,-0.593 -0.808,-0.84 0.096,-0.07 0.229,-0.062 0.365,-0.055 0.103,0.008 0.211,0.017 0.3,-0.015 0.59,-0.206 -1.559,-0.684 -1.786,-0.761 -0.921,-0.301 -1.761,-0.663 -2.571,-1.043 -0.505,-0.232 -2.103,-0.728 -1.774,-1.175 0.172,-0.236 0.655,-0.125 1.143,-0.017 0.387,0.083 0.779,0.171 1.022,0.084 0.712,-0.256 -0.547,-0.697 -0.876,-0.841 -0.406,-0.187 -2.83,-1.093 -3.116,-1.704 -0.089,-0.007 -0.17,-0.018 -0.252,-0.026 -0.03,0.058 -0.064,0.12 -0.098,0.175 -0.441,0.704 -1.286,1.241 -2.175,1.786 -0.336,0.205 -1.891,0.986 -1.58,1.313 0.375,0.391 2.151,-0.289 2.653,-0.295 1.715,-0.012 0.088,1.043 -0.232,1.354 -0.378,0.362 -3.412,2.357 -2.659,2.663 0.283,0.115 0.598,-0.008 0.929,-0.131 0.312,-0.115 0.645,-0.229 0.991,-0.146 0.976,0.224 0.593,1.229 0.506,1.647 -0.161,0.813 -0.343,1.522 0.342,2.283 0.345,0.381 0.764,0.713 1.311,1.023 0.152,0.086 0.316,0.161 0.219,0.289 -0.196,0.262 -1.317,-0.178 -1.537,-0.257 -2.491,-0.888 -5.194,-1.955 -7.152,-3.177 -0.358,-0.218 -1.267,-0.819 -1.155,-1.138 0.078,-0.206 0.207,-0.196 0.498,-0.186 0.066,10e-4 0.142,0.004 0.227,0.004 0.144,-10e-4 0.279,0.004 0.403,0.01 0.467,0.02 0.766,0.039 0.672,-0.234 -0.078,-0.226 -0.633,-0.464 -0.917,-0.613 -1.746,-0.937 -3.802,-1.668 -5.65,-2.542 -0.644,-0.303 -1.28,-0.624 -1.806,-0.991 -0.29,-0.21 -0.893,-0.704 -0.289,-0.871 0.59,-0.166 2.286,0.484 2.793,0.617 0.227,0.064 1.168,0.407 1.39,0.338 0.362,-0.111 -0.007,-0.58 -0.164,-0.725 -0.712,-0.659 -2.114,-1.159 -3.186,-1.633 -1.227,-0.555 -2.469,-1.097 -3.625,-1.692 -0.416,-0.216 -1.629,-1.095 -1.513,-1.496 -0.942,-0.331 -1.739,-0.582 -2.652,-0.707 -0.09,0.263 -0.819,0.889 -1.233,0.954 -0.277,0.042 -0.8,0.161 -0.389,0.292 0.236,0.065 0.676,0.007 0.928,0.003 2.881,-0.036 -1.002,1.123 0.013,1.507 0.145,0.057 0.322,0.055 0.5,0.053 0.186,-0.003 0.37,-0.005 0.523,0.058 0.427,0.187 0.165,0.661 0.085,0.895 -0.103,0.315 -0.297,0.619 -0.363,0.939 0.007,0.092 0.062,0.177 0.204,0.232 -1.293,-0.472 -2.608,-0.95 -3.984,-1.343 -0.353,-0.105 -0.892,-0.219 -0.993,-0.446 -0.099,-0.222 0.362,-0.223 0.721,-0.225 0.123,0 0.231,0 0.304,-0.008 -0.064,-0.102 -0.311,-0.237 -0.493,-0.296 -0.81,-0.266 -1.513,-0.598 -2.283,-0.891 -0.39,-0.153 -0.807,-0.279 -1.189,-0.441 -0.314,-0.134 -0.964,-0.559 -0.206,-0.54 0.304,0.007 1.308,0.527 1.466,0.103 0.103,-0.264 -0.798,-0.49 -0.984,-0.569 -0.214,-0.09 -0.44,-0.167 -0.666,-0.243 -0.899,-0.307 -1.784,-0.831 -2.257,-1.629 C 491.881,92.4 331.564,46.178 0,58.215 v -1.219 c 11.605,-1.498 23.627,-2.854 35.995,-4.088 5.907,-0.265 11.744,-0.505 17.544,-0.732 31.497,-1.231 61.428,-1.902 89.753,-2.109 2.838,-0.021 5.664,-0.035 8.475,-0.046 0.931,-0.002 1.849,-0.004 2.775,-0.004 1.883,-0.008 3.763,-0.009 5.635,-0.01 1.092,-10e-4 2.177,0.001 3.265,0.002 1.686,0.003 3.371,0.006 5.046,0.012 1.143,0.003 2.282,0.008 3.422,0.015 1.629,0.007 3.252,0.018 4.873,0.03 1.139,0.007 2.276,0.016 3.407,0.026 1.606,0.014 3.207,0.029 4.802,0.046 1.114,0.013 2.228,0.026 3.338,0.036 1.625,0.023 3.243,0.044 4.859,0.065 1.067,0.016 2.136,0.031 3.198,0.049 1.732,0.026 3.453,0.055 5.172,0.086 0.913,0.017 1.828,0.032 2.734,0.049 2.343,0.044 4.672,0.094 6.992,0.143 0.28,0.009 0.562,0.012 0.84,0.019 2.582,0.059 5.147,0.122 7.699,0.189 0.869,0.021 1.73,0.047 2.595,0.07 1.692,0.047 3.384,0.093 5.062,0.144 1.016,0.027 2.026,0.059 3.037,0.094 1.514,0.045 3.023,0.09 4.523,0.142 1.05,0.034 2.09,0.068 3.132,0.103 1.478,0.052 2.957,0.103 4.425,0.158 1.02,0.037 2.038,0.073 3.055,0.114 1.459,0.057 2.917,0.109 4.365,0.166 1.015,0.043 2.028,0.081 3.037,0.122 1.447,0.06 2.885,0.123 4.321,0.183 0.982,0.046 1.969,0.087 2.95,0.131 1.525,0.067 3.035,0.138 4.547,0.208 0.859,0.038 1.727,0.077 2.581,0.12 2.026,0.094 4.037,0.197 6.039,0.298 0.322,0.017 0.651,0.032 0.975,0.048 2.32,0.118 4.627,0.241 6.918,0.365 0.766,0.042 1.522,0.085 2.285,0.131 1.526,0.083 3.05,0.166 4.555,0.253 0.903,0.054 1.798,0.107 2.694,0.159 1.366,0.079 2.731,0.163 4.087,0.247 0.928,0.055 1.854,0.114 2.779,0.172 1.302,0.081 2.598,0.163 3.889,0.243 0.936,0.063 1.876,0.122 2.808,0.187 1.269,0.083 2.529,0.168 3.789,0.251 0.916,0.061 1.828,0.123 2.74,0.187 1.288,0.09 2.567,0.181 3.841,0.273 0.854,0.057 1.705,0.117 2.554,0.181 1.367,0.094 2.721,0.197 4.077,0.299 0.744,0.053 1.496,0.109 2.236,0.164 1.612,0.123 3.208,0.245 4.796,0.37 0.468,0.035 0.947,0.07 1.41,0.108 2.03,0.161 4.041,0.323 6.039,0.486 0.618,0.051 1.224,0.103 1.842,0.153 1.399,0.119 2.797,0.235 4.179,0.351 0.742,0.064 1.479,0.128 2.216,0.193 1.224,0.104 2.445,0.211 3.655,0.317 0.791,0.069 1.572,0.142 2.355,0.21 1.163,0.106 2.326,0.209 3.476,0.317 0.782,0.069 1.557,0.143 2.332,0.216 1.124,0.104 2.243,0.208 3.359,0.313 0.778,0.076 1.554,0.147 2.327,0.222 1.1,0.107 2.189,0.212 3.276,0.318 0.761,0.078 1.522,0.149 2.276,0.225 1.138,0.114 2.258,0.226 3.377,0.34 0.67,0.066 1.339,0.134 2.002,0.2 1.371,0.145 2.725,0.284 4.077,0.426 0.402,0.044 0.813,0.086 1.215,0.128 1.747,0.184 3.477,0.37 5.188,0.556 0.402,0.041 0.792,0.086 1.189,0.131 1.307,0.143 2.608,0.288 3.892,0.432 0.607,0.069 1.206,0.137 1.809,0.203 1.04,0.119 2.079,0.237 3.101,0.355 0.685,0.078 1.36,0.158 2.035,0.239 0.956,0.108 1.904,0.219 2.842,0.331 0.681,0.081 1.358,0.161 2.032,0.242 0.912,0.111 1.819,0.221 2.722,0.329 0.656,0.079 1.312,0.161 1.961,0.242 0.93,0.111 1.849,0.226 2.763,0.342 0.604,0.074 1.214,0.15 1.816,0.225 0.972,0.124 1.927,0.249 2.883,0.371 0.517,0.067 1.043,0.133 1.56,0.198 1.068,0.137 2.122,0.277 3.173,0.414 0.396,0.055 0.803,0.106 1.196,0.159 1.411,0.188 2.804,0.377 4.174,0.561 0.371,0.049 0.733,0.1 1.102,0.151 1.019,0.139 2.031,0.277 3.028,0.415 0.482,0.07 0.958,0.139 1.436,0.204 0.852,0.119 1.7,0.238 2.535,0.358 0.524,0.075 1.041,0.149 1.562,0.226 0.777,0.112 1.554,0.222 2.321,0.336 0.518,0.073 1.036,0.149 1.549,0.227 0.744,0.109 1.481,0.218 2.208,0.327 0.515,0.077 1.03,0.153 1.538,0.23 0.688,0.104 1.367,0.207 2.044,0.312 0.528,0.078 1.054,0.159 1.573,0.238 0.685,0.106 1.355,0.214 2.025,0.317 0.462,0.07 0.928,0.143 1.386,0.217 0.807,0.127 1.599,0.254 2.387,0.381 0.299,0.047 0.613,0.094 0.908,0.143 1.079,0.173 2.139,0.347 3.179,0.516 0.289,0.052 0.564,0.097 0.851,0.144 0.751,0.125 1.498,0.246 2.224,0.37 0.406,0.069 0.79,0.135 1.184,0.201 0.588,0.1 1.177,0.199 1.743,0.297 0.424,0.075 0.831,0.145 1.246,0.216 0.53,0.094 1.062,0.185 1.58,0.275 0.418,0.077 0.833,0.151 1.243,0.219 0.478,0.089 0.95,0.172 1.42,0.258 0.422,0.075 0.843,0.153 1.259,0.225 0.438,0.081 0.872,0.164 1.299,0.241 0.401,0.073 0.802,0.148 1.191,0.222 0.439,0.08 0.864,0.159 1.291,0.239 0.363,0.069 0.731,0.137 1.085,0.207 0.414,0.079 0.814,0.156 1.218,0.236 0.346,0.066 0.705,0.134 1.043,0.202 0.68,0.132 1.341,0.263 1.983,0.388 0.012,0.004 0.029,0.005 0.042,0.009 0.928,0.604 1.567,0.954 3.047,1.48 2.367,0.844 5.301,1.951 7.124,2.988 1.823,1.037 4.467,3.578 6.51,4.155 2.049,0.575 5.412,1.778 6.992,1.837 1.58,0.062 4.255,-0.718 4.878,-1.466 0.619,-0.747 0.697,-1.153 1.859,-1.791 0.923,-0.509 2.226,-2.027 3.493,-2.548 1.443,0.257 2.32,0.432 2.347,0.486 1.256,2.542 3.627,7.002 4.722,9.266 l 2.433,0.127 -0.261,-0.558 1.795,0.124 0.251,0.545 2.02,0.127 -0.224,-0.507 1.79,0.119 0.223,0.502 2.522,0.157 -1.488,-3.387 3.203,0.193 1.627,3.388 2.261,0.142 -0.25,-0.563 1.796,0.126 0.24,0.555 1.966,0.123 -0.265,-0.546 1.801,0.126 0.257,0.539 2.881,0.191 -4.438,-8.472 c 0.815,0.045 2.971,0.337 3.769,0.379 l 4.156,7.256 2.619,0.211 1.278,1.463 -3.814,-0.389 14.529,6.794 3.588,-5.656 -3.142,-0.242 -0.912,-1.333 2.276,0.087 -4.201,-7.078 c 0.482,0.049 2.563,0.232 4.703,0.413 l 3.66,6.252 -1.551,-0.199 12.086,6.06 1.542,-2.092 6.854,0.747 -2.509,-3.632 1.643,0.092 -0.903,-1.407 2.212,0.118 -2.3,-4.854 -0.1,-0.21 4.701,0.593 c 0.018,0 0.417,0.046 1.094,0.124 1.314,0.159 3.741,0.454 6.662,0.807 v 12.918 c -3.389,0.301 -6.704,0.282 -9.239,0.257 -1.432,-0.013 -2.617,-0.027 -3.422,0.014 -0.668,0.007 -1.332,0.019 -2.017,0.025 -0.004,0.01 -0.009,0.018 -0.012,0.027 h -0.005 l 0.003,0.002 c -0.193,0.435 -0.615,0.798 -1.066,1.168 -0.186,0.147 -1.056,0.718 -0.809,0.91 0.306,0.236 1.33,-0.28 1.653,-0.302 1.094,-0.086 0.222,0.663 0.061,0.875 -0.185,0.249 -1.807,1.664 -1.277,1.826 0.2,0.062 0.382,-0.032 0.576,-0.127 0.178,-0.085 0.375,-0.173 0.605,-0.137 0.66,0.1 0.569,0.762 0.584,1.037 0.024,0.528 0.014,0.99 0.578,1.445 0.248,0.206 0.526,0.383 0.9,0.529 0.138,0.053 0.538,0.155 0.508,0.264 -0.05,0.168 -0.5,0.075 -0.684,0.035 -0.391,-0.074 -0.742,-0.193 -1.115,-0.298 -0.791,-0.227 -1.581,-0.448 -2.343,-0.704 -0.769,-0.258 -1.502,-0.539 -2.177,-0.859 -0.26,-0.132 -0.935,-0.474 -0.918,-0.684 0.026,-0.169 0.145,-0.126 0.433,-0.152 0.443,-0.028 0.786,0.029 0.657,-0.189 -0.09,-0.14 -0.481,-0.267 -0.68,-0.352 -1.265,-0.525 -2.695,-0.9 -4.009,-1.378 -0.464,-0.165 -0.917,-0.346 -1.309,-0.556 -0.221,-0.118 -0.681,-0.408 -0.322,-0.544 0.352,-0.133 1.54,0.21 1.882,0.273 0.154,0.028 0.806,0.205 0.938,0.153 0.214,-0.089 -0.094,-0.37 -0.219,-0.46 -0.555,-0.387 -1.532,-0.645 -2.287,-0.907 -0.446,-0.149 -0.893,-0.301 -1.339,-0.461 -0.765,0.678 -2.223,1.288 -3.444,1.574 -0.388,0.09 -1.254,0.172 -1.464,0.39 -0.294,0.313 0.474,0.366 0.91,0.289 0.56,-0.094 1.737,-0.466 2.124,-0.02 0.628,0.718 -1.512,1.694 -2.34,2.059 -0.466,0.203 -2.566,0.759 -2.175,1.172 0.278,0.287 1.131,-0.076 1.52,-0.087 0.657,-0.019 1.345,0.273 1.383,0.638 0.059,0.685 -1.302,1.323 -2.052,1.812 -0.66,0.434 -1.923,1.19 -1.269,1.808 0.23,0.219 0.616,0.182 1.001,0.149 0.497,-0.044 0.996,-0.089 1.185,0.412 0.149,0.418 -0.109,0.861 0.159,1.269 0.271,0.417 0.79,0.78 1.382,1.077 0.335,0.171 1.478,0.48 1.442,0.758 -0.017,0.118 -0.189,0.159 -0.417,0.161 z m -63.43,-14.366 c 0.01,0.004 0.021,0.007 0.032,0.013 -0.011,-0.006 -0.022,-0.009 -0.032,-0.013"
                 id="path2628"
                 style="fill:url(#linearGradient3434)" />
            </g>
          </g>
        </g>
      </g>
    </g>
    <g
       id="g2650"
       transform="matrix(0.33072917,0,0,-0.33072917,-17.951599,378.62754)">
      <g
         clip-path="url(#clipPath3446)"
         id="g2648">
        <g
           id="g2646">
          <g
             id="g2644">
            <g
               clip-path="url(#clipPath3456)"
               id="g2642">
              <path
                 fill="url(#linearGradient3460)"
                 d="m 544.068,91.135 3.814,0.389 -1.278,-1.463 -2.619,-0.211 -4.156,-7.256 c -0.798,-0.042 -2.954,-0.334 -3.769,-0.379 l 4.438,8.472 -2.881,-0.191 -0.257,-0.539 -1.801,-0.126 0.265,0.546 -1.966,-0.123 -0.24,-0.555 -1.796,-0.126 0.25,0.563 -2.261,-0.142 -1.627,-3.388 -3.203,-0.193 1.488,3.387 -2.522,-0.157 -0.223,-0.502 -1.79,-0.119 0.224,0.507 -2.02,-0.127 -0.251,-0.545 -1.795,-0.124 0.261,0.558 -2.433,-0.127 c -1.095,-2.264 -3.466,-6.724 -4.722,-9.266 -0.027,-0.054 -0.904,-0.229 -2.347,-0.486 -1.267,0.521 -2.57,2.039 -3.493,2.548 -1.162,0.638 -1.24,1.044 -1.859,1.791 -0.623,0.748 -3.298,1.528 -4.878,1.466 -1.58,-0.059 -4.943,-1.262 -6.992,-1.837 -2.043,-0.577 -4.687,-3.118 -6.51,-4.155 -1.823,-1.037 -4.757,-2.144 -7.124,-2.988 -1.48,-0.526 -2.119,-0.876 -3.047,-1.48 -0.013,-0.004 -0.03,-0.005 -0.042,-0.009 -0.642,-0.125 -1.303,-0.256 -1.983,-0.388 -0.34,-0.068 -0.697,-0.136 -1.043,-0.202 -0.404,-0.08 -0.804,-0.157 -1.218,-0.236 -0.354,-0.07 -0.722,-0.138 -1.085,-0.207 -0.427,-0.08 -0.852,-0.159 -1.291,-0.239 -0.389,-0.074 -0.79,-0.149 -1.191,-0.222 -0.427,-0.077 -0.861,-0.16 -1.299,-0.241 -0.416,-0.072 -0.837,-0.15 -1.259,-0.225 -0.47,-0.086 -0.942,-0.169 -1.42,-0.258 -0.41,-0.068 -0.825,-0.142 -1.243,-0.219 -0.518,-0.09 -1.05,-0.181 -1.58,-0.275 -0.415,-0.071 -0.822,-0.141 -1.246,-0.216 -0.566,-0.098 -1.155,-0.197 -1.743,-0.297 -0.394,-0.066 -0.778,-0.132 -1.184,-0.201 -0.726,-0.124 -1.473,-0.245 -2.224,-0.37 -0.287,-0.047 -0.562,-0.092 -0.851,-0.144 -1.04,-0.169 -2.1,-0.343 -3.179,-0.516 -0.298,-0.048 -0.609,-0.097 -0.908,-0.143 -0.788,-0.127 -1.58,-0.254 -2.387,-0.381 -0.458,-0.074 -0.924,-0.147 -1.386,-0.217 -0.67,-0.103 -1.34,-0.211 -2.025,-0.317 -0.519,-0.079 -1.045,-0.16 -1.573,-0.238 -0.677,-0.105 -1.356,-0.208 -2.044,-0.312 -0.508,-0.077 -1.023,-0.153 -1.538,-0.23 -0.727,-0.109 -1.464,-0.218 -2.208,-0.327 -0.513,-0.078 -1.031,-0.154 -1.549,-0.227 -0.767,-0.114 -1.544,-0.224 -2.321,-0.336 -0.521,-0.077 -1.038,-0.151 -1.562,-0.226 -0.835,-0.12 -1.683,-0.239 -2.535,-0.358 -0.478,-0.065 -0.954,-0.134 -1.436,-0.204 -0.997,-0.138 -2.009,-0.276 -3.028,-0.415 -0.369,-0.051 -0.731,-0.102 -1.102,-0.151 -1.37,-0.184 -2.763,-0.373 -4.174,-0.561 -0.393,-0.053 -0.8,-0.104 -1.196,-0.159 -1.051,-0.137 -2.105,-0.277 -3.173,-0.414 -0.517,-0.065 -1.041,-0.131 -1.56,-0.198 -0.956,-0.122 -1.911,-0.247 -2.883,-0.371 -0.602,-0.075 -1.212,-0.151 -1.816,-0.225 -0.914,-0.116 -1.833,-0.231 -2.763,-0.342 -0.649,-0.081 -1.305,-0.163 -1.961,-0.242 -0.903,-0.108 -1.81,-0.218 -2.722,-0.329 -0.674,-0.081 -1.349,-0.161 -2.032,-0.242 -0.938,-0.112 -1.886,-0.223 -2.842,-0.331 -0.675,-0.081 -1.35,-0.161 -2.035,-0.239 -1.022,-0.118 -2.061,-0.236 -3.101,-0.355 -0.603,-0.066 -1.202,-0.134 -1.809,-0.203 -1.284,-0.144 -2.585,-0.289 -3.892,-0.432 -0.397,-0.045 -0.787,-0.09 -1.189,-0.131 -1.711,-0.186 -3.441,-0.371 -5.188,-0.556 -0.402,-0.042 -0.811,-0.084 -1.215,-0.128 -1.352,-0.142 -2.706,-0.281 -4.077,-0.426 -0.663,-0.066 -1.332,-0.132 -2.002,-0.2 -1.119,-0.114 -2.239,-0.226 -3.377,-0.34 -0.754,-0.076 -1.515,-0.147 -2.276,-0.225 -1.087,-0.106 -2.176,-0.211 -3.276,-0.318 -0.775,-0.075 -1.549,-0.146 -2.327,-0.222 -1.116,-0.105 -2.235,-0.209 -3.359,-0.313 -0.776,-0.073 -1.55,-0.147 -2.332,-0.216 -1.15,-0.108 -2.313,-0.211 -3.476,-0.317 -0.783,-0.068 -1.564,-0.141 -2.355,-0.21 -1.21,-0.106 -2.431,-0.213 -3.655,-0.317 -0.737,-0.065 -1.474,-0.129 -2.216,-0.193 -1.385,-0.116 -2.78,-0.232 -4.179,-0.351 -0.618,-0.05 -1.224,-0.102 -1.842,-0.153 -1.998,-0.163 -4.009,-0.325 -6.039,-0.486 -0.467,-0.038 -0.942,-0.073 -1.41,-0.108 -1.588,-0.125 -3.184,-0.247 -4.796,-0.37 -0.74,-0.055 -1.492,-0.111 -2.236,-0.164 -1.356,-0.102 -2.71,-0.205 -4.077,-0.299 -0.849,-0.064 -1.7,-0.124 -2.554,-0.181 -1.274,-0.092 -2.553,-0.183 -3.841,-0.273 -0.912,-0.064 -1.824,-0.126 -2.74,-0.187 -1.26,-0.083 -2.52,-0.168 -3.789,-0.251 -0.936,-0.065 -1.872,-0.124 -2.808,-0.187 -1.291,-0.08 -2.587,-0.162 -3.889,-0.243 -0.925,-0.058 -1.851,-0.117 -2.779,-0.172 -1.356,-0.084 -2.721,-0.168 -4.087,-0.247 -0.896,-0.052 -1.791,-0.105 -2.694,-0.159 -1.505,-0.087 -3.029,-0.17 -4.555,-0.253 -0.763,-0.046 -1.519,-0.089 -2.285,-0.131 -2.291,-0.124 -4.598,-0.247 -6.918,-0.365 -0.324,-0.016 -0.653,-0.031 -0.975,-0.048 -2.003,-0.101 -4.012,-0.204 -6.039,-0.298 -0.854,-0.043 -1.722,-0.082 -2.581,-0.12 -1.512,-0.07 -3.022,-0.141 -4.547,-0.208 -0.981,-0.044 -1.968,-0.085 -2.95,-0.131 -1.436,-0.06 -2.874,-0.123 -4.321,-0.183 -1.009,-0.041 -2.022,-0.079 -3.037,-0.122 -1.448,-0.057 -2.906,-0.109 -4.365,-0.166 -1.017,-0.041 -2.035,-0.077 -3.055,-0.114 -1.468,-0.054 -2.945,-0.106 -4.425,-0.158 -1.042,-0.035 -2.082,-0.069 -3.132,-0.103 -1.5,-0.052 -3.009,-0.097 -4.523,-0.142 -1.011,-0.035 -2.021,-0.067 -3.037,-0.094 -1.678,-0.051 -3.368,-0.097 -5.062,-0.144 -0.865,-0.023 -1.726,-0.049 -2.595,-0.07 -2.552,-0.067 -5.117,-0.13 -7.699,-0.189 -0.278,-0.007 -0.56,-0.01 -0.84,-0.019 -2.32,-0.049 -4.649,-0.099 -6.992,-0.143 -0.906,-0.017 -1.821,-0.032 -2.734,-0.049 -1.719,-0.031 -3.44,-0.06 -5.172,-0.086 -1.064,-0.018 -2.131,-0.033 -3.198,-0.049 -1.616,-0.021 -3.234,-0.042 -4.859,-0.065 -1.11,-0.01 -2.224,-0.023 -3.338,-0.036 -1.595,-0.017 -3.196,-0.032 -4.802,-0.046 -1.131,-0.01 -2.268,-0.019 -3.407,-0.026 -1.621,-0.012 -3.244,-0.023 -4.873,-0.03 -1.14,-0.007 -2.279,-0.012 -3.422,-0.015 -1.675,-0.006 -3.36,-0.009 -5.046,-0.012 -1.088,-10e-4 -2.173,-0.003 -3.265,-0.002 -1.872,0.001 -3.752,0.002 -5.635,0.01 -0.926,0 -1.844,0.002 -2.775,0.004 -2.811,0.011 -5.637,0.025 -8.475,0.046 -28.325,0.207 -58.256,0.878 -89.753,2.109 -5.8,0.227 -11.637,0.467 -17.544,0.732 52.075,-5.194 110.568,-8.11 172.017,-9.541 4.296,0.143 8.539,0.291 12.74,0.443 0.139,0.006 0.281,0.01 0.421,0.016 -0.084,0.003 -0.169,0.003 -0.252,0.007 1.347,0.042 2.67,0.087 4.006,0.127 142.075,4.587 218.245,14.526 258.47,22.842 8.459,1.751 15.333,3.429 20.895,4.969 1.503,0.415 2.992,0.854 4.567,0.972 0.608,0.041 1.844,0.148 2.134,-0.527 0.341,-0.786 -1.163,-1.337 -1.163,-1.994 0.005,-0.617 0.911,-0.544 1.393,-0.48 1.338,0.178 2.789,1.102 4.031,1.611 2.295,0.939 4.755,1.742 7.205,2.257 1.318,0.274 4.438,0.988 5.17,-0.602 0.333,-0.71 -3.604,-2.335 -0.909,-2.809 1.44,-0.261 2.9,0.266 4.188,0.869 2.562,1.204 4.836,2.77 7.575,3.605 2.778,0.847 5.699,1.2 8.598,1.255 1.886,0.037 4.411,-0.303 4.601,-1.478 0.164,-1.001 -3.683,-2.257 -1.957,-3.039 3.217,-1.468 6.957,1.36 9.664,2.668 3.895,1.894 8.146,3.612 12.591,3.911 1.783,0.121 3.747,0.23 5.494,-0.196 0.555,-0.138 1.35,-0.251 1.428,-0.828 0.149,-1.109 -1.94,-1.592 -2.649,-2.071 -1.591,-1.069 0.743,-1.89 1.738,-1.875 3.618,0.056 7.126,3.024 10.148,4.551 1.092,0.548 3.33,1.089 5.861,1.546 v 7.386 c -2.834,-0.338 -5.311,-0.632 -6.662,-0.791 -0.648,-0.077 -1.057,-0.124 -1.094,-0.124 l -4.701,-0.593 0.1,0.21 2.3,4.854 -2.212,-0.118 0.903,1.407 -1.643,-0.092 2.509,3.632 -6.854,-0.747 -1.542,2.092 -12.086,-6.06 1.551,0.199 -3.66,-6.252 c -2.14,-0.181 -4.221,-0.364 -4.703,-0.413 l 4.201,7.078 -2.276,-0.087 0.912,1.333 3.142,0.242 -3.588,5.656 z"
                 id="path2640"
                 style="fill:url(#linearGradient3460)" />
            </g>
          </g>
        </g>
      </g>
    </g>
    <g
       id="g4360"
       transform="translate(-15.520716,-1.5918683)">
      <path
         id="path4742"
         style="fill:#ca2b36;stroke-width:0.0561864;stroke-linecap:round;stroke-dashoffset:16.6299"
         d="m 69.793827,200.29633 a 12.5,12.5 0 0 1 -12.5,12.5 12.5,12.5 0 0 1 -12.5,-12.5 12.5,12.5 0 0 1 12.5,-12.5 12.5,12.5 0 0 1 12.5,12.5 z" />
      <path
         id="path4742-2"
         style="fill:#000000;fill-opacity:0.4;stroke-width:0.212358;stroke-linecap:round;stroke-dashoffset:16.6299"
         d="m 261.41406,771.73242 -28.30078,-28.30078 -9.63867,-3.5293 -7.38477,0.92383 -8.56836,3.56055 -5.93359,0.13086 -3.56055,3.0332 -2.27148,7.53125 6.51172,6.48633 -14.79102,2.49414 -6.45117,4.32227 -0.89453,2.26562 33.52148,33.52149 a 47.244094,47.244094 0 0 0 2.89063,0.0977 47.244094,47.244094 0 0 0 44.87109,-32.53711 z"
         transform="scale(0.26458333)" />
      <g
         id="g4351">
        <path
           d="m 56.661588,203.34481 c 0.139745,0.0746 0.542801,0.26241 0.65199,0.3051 0.02785,0.0122 0.05032,0.007 0.07054,-0.0122 0.161763,-0.17568 0.246238,-0.2705 0.389128,-0.4435 0.01618,-0.0202 0.01527,-0.0598 -0.0094,-0.0705 -0.283083,-0.1326 -0.442149,-0.21973 -0.681197,-0.36441 -0.02516,-0.0179 -0.05482,-0.0109 -0.0692,0.0122 -0.120877,0.19815 -0.199056,0.31004 -0.355426,0.50595 -0.01932,0.0197 -0.01932,0.0553 0.0035,0.0664"
           id="path2582"
           style="fill:#ffffff;fill-rule:nonzero;stroke-width:0.449338" />
        <path
           d="m 58.420297,203.03567 c 0.252976,0.0993 0.428667,0.15142 0.703663,0.24488 0.02696,0.008 0.04898,0.005 0.06785,-0.0158 0.144237,-0.15951 0.209392,-0.24265 0.332061,-0.39946 0.02292,-0.0296 0.04493,-0.058 0.0692,-0.0859 0.01618,-0.0234 0.0082,-0.0584 -0.01663,-0.0701 -0.277691,-0.1235 -0.451135,-0.22333 -0.691081,-0.37701 -0.02292,-0.0144 -0.05527,-0.0109 -0.07009,0.014 -0.135251,0.2314 -0.240395,0.38283 -0.411593,0.61963 -0.01663,0.0216 -0.0086,0.0566 0.01663,0.0697"
           id="path2584"
           style="fill:#ffffff;fill-rule:nonzero;stroke-width:0.449338" />
        <path
           d="m 58.124632,203.33718 c 0.01753,-0.0211 0.04089,-0.0279 0.0683,-0.0152 0.199057,0.0863 0.391373,0.15907 0.646147,0.25432 0.02606,0.01 0.02876,0.0508 0.0099,0.0715 -0.03055,0.0346 -0.06471,0.0687 -0.09616,0.10285 -0.07549,0.0787 -0.09346,0.20534 -8.98e-4,0.29566 0.07593,0.076 0.210289,0.0795 0.289374,-0.003 0.09167,-0.0976 0.154123,-0.16849 0.238148,-0.26735 0.01437,-0.022 0.03998,-0.0261 0.0683,-0.0162 0.05932,0.0197 0.121326,0.0418 0.184229,0.0619 0.110986,0.0355 0.216132,-0.0122 0.258819,-0.11318 0.03954,-0.10244 -0.01128,-0.22197 -0.113228,-0.25881 -0.01977,-0.005 -0.0373,-0.0109 -0.05617,-0.0152 -0.02696,-0.01 -0.03595,-0.0477 -0.01753,-0.0705 0.141092,-0.18334 0.209841,-0.2804 0.329365,-0.46058 0.01393,-0.0216 0.03909,-0.0274 0.0665,-0.0202 0.07009,0.0243 0.140193,0.0477 0.212537,0.0701 0.107834,0.0341 0.21703,-0.01 0.257471,-0.10869 0.04089,-0.10339 -0.01033,-0.22781 -0.118622,-0.26331 -0.05932,-0.0193 -0.06875,-0.022 -0.128513,-0.0418 -0.02786,-0.008 -0.03774,-0.0427 -0.02382,-0.067 0.08358,-0.14109 0.286678,-0.54325 0.335656,-0.64884 0.03145,-0.0678 0.01209,-0.1326 -0.04898,-0.16939 -0.06021,-0.0368 -0.147833,-0.0158 -0.179286,0.0489 -0.111435,0.2413 -0.234554,0.43901 -0.407099,0.67581 -0.01663,0.0171 -0.04359,0.022 -0.06875,0.0148 -0.203101,-0.0711 -0.531117,-0.22063 -0.787689,-0.35633 -0.02471,-0.0136 -0.0319,-0.0422 -0.02113,-0.0678 0.04045,-0.0736 0.166256,-0.35228 0.208044,-0.44394 0.03011,-0.0606 0.009,-0.13437 -0.04718,-0.16626 -0.05887,-0.036 -0.144687,-0.0193 -0.175242,0.0508 -0.06156,0.13436 -0.130755,0.28308 -0.229611,0.439 -0.01753,0.0243 -0.04763,0.0306 -0.07055,0.0171 -0.203101,-0.10692 -0.337901,-0.18647 -0.500562,-0.32172 -0.05392,-0.0463 -0.129857,-0.0405 -0.174343,0.008 -0.04943,0.0503 -0.04403,0.1366 0.01168,0.18198 0.07414,0.058 0.110538,0.0876 0.192317,0.14693 0.100199,0.0746 0.207144,0.15009 0.314536,0.22558 0.02471,0.0179 0.02066,0.049 0.0045,0.0701 -0.08178,0.11413 -0.164907,0.23007 -0.25118,0.34735 -0.09256,0.12309 -0.140194,0.18602 -0.240396,0.31228 -0.01753,0.0269 -0.04224,0.0327 -0.07009,0.0211 -0.170749,-0.0736 -0.600765,-0.275 -0.759381,-0.36712 -0.02561,-0.0171 -0.02651,-0.0454 -0.01663,-0.0719 0.09661,-0.16672 0.326669,-0.61919 0.365312,-0.70636 0.0355,-0.075 0.01264,-0.13885 -0.04224,-0.17345 -0.06111,-0.0346 -0.147833,-0.0109 -0.178837,0.0508 -0.112331,0.25118 -0.253875,0.43451 -0.422377,0.68839 -0.01437,0.0243 -0.04629,0.0292 -0.07145,0.0162 -0.168952,-0.10013 -0.278141,-0.17523 -0.404853,-0.27588 -0.05392,-0.0432 -0.128513,-0.0261 -0.16985,0.022 -0.04179,0.0535 -0.0355,0.13301 0.02247,0.17794 0.07145,0.0571 0.320378,0.24669 0.389128,0.29342 0.02292,0.0179 0.02292,0.0503 0.0027,0.0715 -0.02516,0.0337 -0.269154,0.35138 -0.409347,0.51494 -0.01932,0.0207 -0.04763,0.0257 -0.071,0.0109 -0.116829,-0.0736 -0.177489,-0.11412 -0.281287,-0.19457 -0.05706,-0.0471 -0.124015,-0.045 -0.174343,9e-4 -0.05032,0.0489 -0.05032,0.13615 0.0023,0.17839 0.07593,0.0611 0.244888,0.18962 0.270052,0.20625 0.02113,0.0158 0.02113,0.053 0.0027,0.0723 -0.05077,0.0553 -0.06785,0.0666 -0.121774,0.12269 -0.07504,0.0728 -0.08313,0.2013 -0.0049,0.28129 0.07593,0.0791 0.204449,0.0814 0.280387,0.005 0.07235,-0.0723 0.114586,-0.11412 0.177938,-0.18468 0.02066,-0.0207 0.04763,-0.0243 0.07054,-0.007 0.205347,0.13573 0.337903,0.21972 0.578747,0.34463 0.02561,0.0136 0.02382,0.0526 0.0054,0.0723 -0.07324,0.0736 -0.0984,0.0931 -0.174343,0.16446 -0.07683,0.0719 -0.08133,0.20355 -0.0049,0.28083 0.07638,0.0818 0.206696,0.0827 0.281286,0.007 0.103799,-0.10652 0.183779,-0.19142 0.280835,-0.29522 0.01438,-0.0179 0.04045,-0.0207 0.0674,-0.01 0.0719,0.0292 0.23051,0.088 0.3051,0.1159 0.100199,0.0346 0.199955,0.0122 0.257471,-0.0867 0.05392,-0.0921 0.01437,-0.23905 -0.105593,-0.28084 -0.05751,-0.0198 -0.127167,-0.045 -0.161311,-0.0598 -0.02516,-0.01 -0.0364,-0.0495 -0.01618,-0.0692 0.07369,-0.0872 0.317682,-0.37744 0.362167,-0.43675 m -4.542806,-5.34308 c 0.09211,-0.0355 0.248035,-0.10245 0.236801,-0.23006 -0.01708,-0.18018 -0.441698,-0.24714 -0.441698,-0.24714 0,0 -0.293419,-0.0619 -0.429567,0.10869 -0.134803,0.16985 -0.130755,0.3716 -0.122671,0.39945 0.01663,0.0598 0.04763,0.0917 0.121774,0.0886 0.106489,-0.007 0.540105,-0.0886 0.635364,-0.11956 m 6.993944,6.41879 c -1.141768,0.93463 -2.607059,1.24377 -3.622113,1.13458 -0.971019,-0.10692 -1.60099,-0.54864 -1.985175,-1.22264 -0.452483,-0.79714 -0.474501,-1.94519 0.323075,-2.89599 0.77331,-0.92025 2.114583,-1.33588 4.561677,-1.0793 0.635364,0.0678 1.104472,-0.28713 1.335882,-0.60617 0.08043,-0.10828 -0.0355,-0.18468 -0.109193,-0.14513 -0.127616,0.0736 -0.499664,0.29925 -0.873514,0.27499 -0.82139,-0.0516 -1.452709,-0.21208 -2.864528,-0.0683 -0.205347,-0.95753 0.08717,-1.79689 0.922491,-2.22602 0.04403,-0.0243 0.08943,-0.0405 0.08943,-0.0884 0,-0.0508 -0.03909,-0.0822 -0.08943,-0.0908 -0.05122,-0.008 -0.111883,0 -0.14963,0.003 -0.07504,0.01 -0.148282,0.0341 -0.21703,0.0647 -0.04224,0.0202 -0.06156,0.001 -0.05617,-0.0288 0.0054,-0.0323 0.01482,-0.066 0.01753,-0.0697 0.08313,-0.27319 0.248933,-0.53741 0.456977,-0.73467 0.115931,-0.11004 0.25073,-0.18557 0.343294,-0.23276 0.04403,-0.0238 0.07414,-0.066 0.05977,-0.1114 -0.01573,-0.0472 -0.06246,-0.0674 -0.111883,-0.0588 -0.168053,0.0333 -0.598518,0.20939 -0.866324,0.50011 -0.265109,0.28937 -0.42687,0.70996 -0.498764,1.04832 -0.236353,0.25611 -0.393171,0.45607 -0.491576,0.96382 -0.107835,0.55224 -0.04359,0.94137 -0.0013,1.20872 -0.689733,0.1977 -1.327794,0.55538 -1.788814,1.04875 -0.101992,-0.12092 -0.346889,-0.30825 -0.450686,-0.36486 -0.452034,-0.24309 -0.889239,-0.25522 -1.280164,-0.17434 -0.199057,0.0405 -0.367108,0.14244 -0.454729,0.10692 -0.248035,-0.0997 -0.76657,-0.56436 -1.069874,-0.89058 -0.260616,-0.27994 -0.469558,-0.59762 -0.469558,-0.81061 0,-0.21389 0.315435,-0.68928 1.031231,-1.3925 0.615593,-0.60525 1.144463,-0.98314 1.297688,-1.04561 0.279039,-0.11372 0.735565,-0.11997 0.994384,-0.11997 0.79398,0 2.04988,-1.00696 3.366888,-1.22085 0.696924,-0.11195 1.256799,-0.0952 1.986074,0.17389 0.722534,0.27006 1.271627,0.81196 1.731298,1.3925 0.438104,0.55764 0.820941,1.31971 0.996182,2.19053 0.166705,0.81599 0.188274,1.47023 -0.08403,2.64839 -0.226467,0.97956 -0.994385,2.11324 -1.979333,2.91935"
           id="path2586"
           style="fill:#ffffff;fill-rule:nonzero;stroke-width:0.449338" />
        <path
           d="m 61.128007,204.31808 c 0.262861,-0.20355 0.690632,-0.59133 0.864526,-0.82274 0,0 1.138621,0.15098 1.630197,0.23052 0.09975,0.0148 0.292069,0.0148 0.397663,-0.12133 0.115035,-0.15054 0.07549,-0.21703 -0.01482,-0.23231 -0.211638,-0.0386 -0.553584,-0.0917 -0.779601,-0.12486 -0.115484,-0.0148 -0.185577,-0.0633 -0.1321,-0.17525 0.05437,-0.11005 0.141991,-0.10787 0.251629,-0.10787 0.283084,0.003 2.115932,0.33251 2.642557,0.42012 0.109641,0.0198 0.153223,-0.004 0.191417,-0.11235 0.03729,-0.10829 -0.01482,-0.12717 -0.239048,-0.27051 -0.241743,-0.15636 -0.244888,-0.306 -0.441699,-0.35138 -0.247136,-0.0553 -2.748599,-0.43226 -2.748599,-0.43181 0.11998,-0.24129 0.185576,-0.49024 0.215682,-0.61784 0.009,-0.0382 0.0274,-0.0539 0.08133,-0.0477 0.158617,0.0207 0.52348,0.0633 0.713999,0.0908 l 0.869026,0.12255 c 0.414738,0.0633 0.796226,0.12934 1.130982,0.195 0.23141,0.045 0.251631,0.38149 0.608405,0.67266 0.418332,0.34375 0.719389,0.37745 0.861829,0.50506 m -16.449366,-1.57707 c 1.199732,-0.19545 2.522134,-0.30914 3.828358,-0.3671 0.08987,-0.005 0.119518,0.0853 0.07683,0.14333 -0.106489,0.15502 -0.197259,0.31948 -0.269153,0.49608 -1.686365,0.1038 -3.331841,0.3388 -3.958217,0.44169 -0.634016,0.10556 -1.241521,0.27589 -1.60189,0.41968 -0.09436,0.0382 -0.07953,0.111 -0.27185,0.28803 -0.132547,0.1254 -0.287126,0.17704 -0.29791,0.26152 -0.0094,0.0575 0.06201,0.20174 0.166704,0.18018 0.565268,-0.10652 1.871044,-0.48169 2.659182,-0.58099 0.06606,-0.0109 0.181082,0.007 0.233656,0.11997 0.05122,0.10339 -0.02471,0.15457 -0.107386,0.1703 -0.216131,0.0422 -0.388677,0.0701 -0.727028,0.14378 -0.01708,0.004 -0.150079,0.0584 -0.06425,0.17121 0.06964,0.0931 0.258818,0.0791 0.258818,0.0791 0.501012,-0.0859 2.19187,-0.39407 2.576055,-0.448 0.113228,-0.0136 0.813302,-0.1186 0.966075,-0.14064 -0.01887,0.34375 0.129858,0.7814 0.214784,0.97192 0.03011,0.0647 0.0674,0.12758 -0.03729,0.15142 -0.306898,0.0674 -1.820266,0.25298 -2.188723,0.31364 l -0.984951,0.16847 c -0.257919,0.0444 -0.492474,0.088 -0.688835,0.12445 -0.290721,0.0557 -0.622332,-0.41429 -0.944508,-0.45473 -0.323073,-0.0391 -1.100878,0.14738 -1.257247,0.12485 -0.154572,-0.022 -0.224669,-0.11643 -0.40665,-0.35317 -0.05977,-0.076 -0.185128,-0.0368 -0.290273,-0.0845 -0.102454,-0.0471 -0.411145,-0.51045 -0.368457,-0.69197 0.05482,-0.23006 0.749945,-0.32083 1.027635,-0.78949 0.105144,-0.17615 0.150529,-0.31543 0.260616,-0.34959 0.412493,-0.13477 0.862729,-0.25163 1.337229,-0.35138 z m 16.449366,1.57717 c 0.202652,0.18604 -0.137497,0.70997 -0.315435,0.89419 -0.179286,0.19052 -0.236801,0.0351 -0.371603,0.13795 -0.166703,0.12581 -0.205796,0.21434 -0.308245,0.2404 -0.14199,0.0368 -0.444845,-0.0212 -0.626826,-0.0185 -0.304202,0.008 -0.52977,0.0588 -0.743205,0.20265 -0.274546,0.18423 -0.478995,0.3361 -0.713099,0.30106 -0.334308,-0.0575 -0.665919,-0.10611 -0.999328,-0.15548 l -1.031678,-0.1424 c -0.40036,-0.0516 -0.945856,-0.14693 -0.982252,-0.15052 -0.08267,-0.0202 -0.07504,-0.0652 -0.01168,-0.13029"
           id="path2588"
           style="fill:#ffffff;fill-rule:nonzero;stroke-width:0.449338"
           sodipodi:nodetypes="cccccccccccccscccccccccccccccccccccccccccccccccccccccccccccccc" />
      </g>
    </g>
  </g>
</svg>
